SplineFontDB: 3.2
FontName: NegatronicBold
FullName: Negatronic Bold
FamilyName: Negatronic
Weight: Bold
Copyright: Copyright 2020 Adamantica (https://github.com/Adamantica/Negatronic)
Version: 1.000; ttfautohint (v1.6)
ItalicAngle: 0
UnderlinePosition: -100
UnderlineWidth: 50
Ascent: 800
Descent: 200
InvalidEm: 0
sfntRevision: 0x00010000
LayerCount: 2
Layer: 0 1 "Back" 1
Layer: 1 1 "Fore" 0
XUID: [1021 713 481010415 32724]
StyleMap: 0x0020
FSType: 0
OS2Version: 4
OS2_WeightWidthSlopeOnly: 0
OS2_UseTypoMetrics: 1
CreationTime: 1532538922
ModificationTime: 1584760152
PfmFamily: 81
TTFWeight: 700
TTFWidth: 5
LineGap: 0
VLineGap: 0
Panose: 0 0 8 0 0 0 0 0 0 0
OS2TypoAscent: 1000
OS2TypoAOffset: 0
OS2TypoDescent: -250
OS2TypoDOffset: 0
OS2TypoLinegap: 0
OS2WinAscent: 1225
OS2WinAOffset: 0
OS2WinDescent: 561
OS2WinDOffset: 0
HheadAscent: 1000
HheadAOffset: 0
HheadDescent: -250
HheadDOffset: 0
OS2SubXSize: 650
OS2SubYSize: 600
OS2SubXOff: 0
OS2SubYOff: 75
OS2SupXSize: 650
OS2SupYSize: 600
OS2SupXOff: 0
OS2SupYOff: 350
OS2StrikeYSize: 50
OS2StrikeYPos: 299
OS2CapHeight: 700
OS2XHeight: 500
OS2Vendor: 'CDK '
OS2CodePages: 20010193.00000000
OS2UnicodeRanges: 21000007.00000001.00000000.00000000
Lookup: 1 0 0 "'aalt' Access All Alternates lookup 0" { "'aalt' Access All Alternates lookup 0 subtable"  } ['aalt' ('DFLT' <'dflt' > 'latn' <'CAT ' 'MOL ' 'ROM ' 'dflt' > 'thai' <'dflt' > ) ]
Lookup: 3 0 0 "'aalt' Access All Alternates lookup 1" { "'aalt' Access All Alternates lookup 1 subtable"  } ['aalt' ('DFLT' <'dflt' > 'latn' <'CAT ' 'MOL ' 'ROM ' 'dflt' > 'thai' <'dflt' > ) ]
Lookup: 6 0 0 "'ccmp' Glyph Composition/Decomposition in Latin lookup 2" { "'ccmp' Glyph Composition/Decomposition in Latin lookup 2 contextual 0"  "'ccmp' Glyph Composition/Decomposition in Latin lookup 2 contextual 1"  } ['ccmp' ('latn' <'dflt' > ) ]

StartChar: A
Encoding: 35 65 3
Width: 681
GlyphClass: 2
Flags: W
AnchorPoint: "Anchor-6" 0 0 basechar 0
AnchorPoint: "Anchor-5" 341 700 basechar 0
AnchorPoint: "Anchor-4" 677 0 basechar 0
AnchorPoint: "Anchor-3" 341 0 basechar 0
LayerCount: 2
Fore
SplineSet
472 163 m 1,0,-1
 210 163 l 1,1,-1
 148 0 l 1,2,-1
 4 0 l 1,3,-1
 278 700 l 5,4,-1
 405 700 l 5,5,-1
 677 0 l 1,6,-1
 533 0 l 1,7,-1
 472 163 l 1,0,-1
247 279 m 1,8,-1
 435 279 l 1,9,-1
 342 531 l 1,10,-1
 341 531 l 1,11,-1
 247 279 l 1,8,-1
EndSplineSet
Validated: 513
Substitution2: "Single Substitution lookup 19 subtable" ordfeminine
Substitution2: "'aalt' Access All Alternates lookup 0 subtable" ordfeminine
EndChar

StartChar: B
Encoding: 36 66 4
Width: 690
GlyphClass: 2
Flags: W
AnchorPoint: "Anchor-6" 0 0 basechar 0
AnchorPoint: "Anchor-5" 354 700 basechar 0
AnchorPoint: "Anchor-4" 0 0 basechar 0
AnchorPoint: "Anchor-3" 354 0 basechar 0
LayerCount: 2
Fore
SplineSet
62 700 m 1,0,-1
 410 700 l 2,1,2
 505 700 505 700 562.5 655 c 128,-1,3
 620 610 620 610 620 534 c 2,4,-1
 620 484 l 2,5,6
 620 451 620 451 603.5 421 c 128,-1,7
 587 391 587 391 557 372 c 1,8,-1
 557 371 l 1,9,10
 605 354 605 354 634.5 316 c 128,-1,11
 664 278 664 278 664 231 c 2,12,-1
 664 179 l 2,13,14
 664 97 664 97 604 48 c 0,15,16
 543 0 543 0 444 0 c 2,17,-1
 62 0 l 1,18,-1
 62 700 l 1,0,-1
410 410 m 2,19,20
 442 410 442 410 462 430.5 c 128,-1,21
 482 451 482 451 482 485 c 2,22,-1
 482 519 l 2,23,24
 482 547 482 547 461 563.5 c 128,-1,25
 440 580 440 580 405 580 c 2,26,-1
 200 580 l 1,27,-1
 200 410 l 1,28,-1
 410 410 l 2,19,20
434 120 m 2,29,30
 478 120 478 120 502 137.5 c 128,-1,31
 526 155 526 155 526 187 c 2,32,-1
 526 231 l 2,33,34
 526 260 526 260 505 278 c 128,-1,35
 484 296 484 296 449 296 c 2,36,-1
 200 296 l 1,37,-1
 200 120 l 1,38,-1
 434 120 l 2,29,30
EndSplineSet
Validated: 1
EndChar

StartChar: C
Encoding: 37 67 5
Width: 688
GlyphClass: 2
Flags: W
AnchorPoint: "Anchor-6" 0 8 basechar 0
AnchorPoint: "Anchor-5" 351 692 basechar 0
AnchorPoint: "Anchor-4" 0 8 basechar 0
AnchorPoint: "Anchor-3" 362 8 basechar 0
LayerCount: 2
Fore
SplineSet
164.5 33 m 128,-1,1
 106 66 106 66 74 126.5 c 128,-1,2
 42 187 42 187 42 266 c 2,3,-1
 42 434 l 2,4,5
 42 513 42 513 74.5 573.5 c 128,-1,6
 107 634 107 634 166.5 667 c 128,-1,7
 226 700 226 700 304 700 c 2,8,-1
 410 700 l 2,9,10
 485 700 485 700 542 668 c 128,-1,11
 599 636 599 636 630.5 578.5 c 128,-1,12
 662 521 662 521 662 445 c 1,13,-1
 526 445 l 1,14,15
 526 505 526 505 494 541.5 c 128,-1,16
 462 578 462 578 410 578 c 2,17,-1
 304 578 l 2,18,19
 248 578 248 578 214 536.5 c 128,-1,20
 180 495 180 495 180 428 c 2,21,-1
 180 272 l 2,22,23
 180 205 180 205 213 163.5 c 128,-1,24
 246 122 246 122 300 122 c 2,25,-1
 408 122 l 2,26,27
 461 122 461 122 494.5 163 c 128,-1,28
 528 204 528 204 528 271 c 1,29,-1
 664 271 l 1,30,31
 664 190 664 190 632 128.5 c 128,-1,32
 600 67 600 67 542 33.5 c 128,-1,33
 484 0 484 0 408 0 c 2,34,-1
 300 0 l 2,35,0
 223 0 223 0 164.5 33 c 128,-1,1
EndSplineSet
Validated: 1
EndChar

StartChar: D
Encoding: 38 68 6
Width: 702
GlyphClass: 2
Flags: W
LayerCount: 2
Fore
SplineSet
62 0 m 5,0,-1
 62 700 l 5,1,-1
 396 700 l 6,2,3
 476 700 476 700 536.5 670 c 132,-1,4
 597 640 597 640 630.5 585 c 132,-1,5
 664 530 664 530 664 458 c 6,6,-1
 664 262 l 6,7,8
 664 133 664 133 597 66.5 c 132,-1,9
 530 0 530 0 400 0 c 6,10,-1
 159 0 l 5,11,-1
 62 0 l 5,0,-1
396 122 m 2,12,13
 460 122 460 122 493 159 c 128,-1,14
 526 196 526 196 526 268 c 2,15,-1
 526 452 l 2,16,17
 526 509 526 509 489 543.5 c 128,-1,18
 452 578 452 578 392 578 c 2,19,-1
 200 578 l 1,20,-1
 200 122 l 1,21,-1
 396 122 l 2,12,13
EndSplineSet
Validated: 1
EndChar

StartChar: E
Encoding: 39 69 7
Width: 628
GlyphClass: 2
Flags: W
AnchorPoint: "Anchor-6" 0 0 basechar 0
AnchorPoint: "Anchor-5" 333 700 basechar 0
AnchorPoint: "Anchor-4" 596 0 basechar 0
AnchorPoint: "Anchor-3" 337 0 basechar 0
LayerCount: 2
Fore
SplineSet
62 700 m 1,0,-1
 596 700 l 1,1,-1
 596 580 l 1,2,-1
 200 580 l 1,3,-1
 200 418 l 1,4,-1
 566 418 l 1,5,-1
 566 298 l 1,6,-1
 200 298 l 1,7,-1
 200 120 l 1,8,-1
 596 120 l 1,9,-1
 596 0 l 1,10,-1
 62 0 l 1,11,-1
 62 700 l 1,0,-1
EndSplineSet
Validated: 1
EndChar

StartChar: F
Encoding: 40 70 8
Width: 604
GlyphClass: 2
Flags: W
AnchorPoint: "Anchor-6" 0 0 basechar 0
AnchorPoint: "Anchor-5" 306 700 basechar 0
AnchorPoint: "Anchor-4" 0 0 basechar 0
AnchorPoint: "Anchor-3" 306 0 basechar 0
LayerCount: 2
Fore
SplineSet
62 700 m 1,0,-1
 586 700 l 1,1,-1
 586 580 l 1,2,-1
 200 580 l 1,3,-1
 200 392 l 1,4,-1
 549 392 l 1,5,-1
 549 272 l 1,6,-1
 200 272 l 1,7,-1
 200 0 l 1,8,-1
 62 0 l 1,9,-1
 62 700 l 1,0,-1
EndSplineSet
Validated: 1
EndChar

StartChar: G
Encoding: 41 71 9
Width: 712
GlyphClass: 2
Flags: W
AnchorPoint: "Anchor-6" 0 8 basechar 0
AnchorPoint: "Anchor-5" 357 692 basechar 0
AnchorPoint: "Anchor-4" 0 8 basechar 0
AnchorPoint: "Anchor-3" 357 8 basechar 0
LayerCount: 2
Fore
SplineSet
166 33 m 128,-1,1
 107 66 107 66 74.5 126.5 c 128,-1,2
 42 187 42 187 42 266 c 2,3,-1
 42 434 l 2,4,5
 42 513 42 513 74.5 573.5 c 128,-1,6
 107 634 107 634 166.5 667 c 128,-1,7
 226 700 226 700 304 700 c 2,8,-1
 416 700 l 2,9,10
 491 700 491 700 548 670 c 128,-1,11
 605 640 605 640 636.5 585 c 128,-1,12
 668 530 668 530 668 466 c 1,13,-1
 532 466 l 1,14,15
 532 512 532 512 500 545 c 128,-1,16
 468 578 468 578 416 578 c 2,17,-1
 304 578 l 2,18,19
 248 578 248 578 214 536.5 c 128,-1,20
 180 495 180 495 180 428 c 2,21,-1
 180 272 l 2,22,23
 180 205 180 205 213.5 163.5 c 128,-1,24
 247 122 247 122 302 122 c 2,25,-1
 420 122 l 2,26,27
 471 122 471 122 504.5 159 c 128,-1,28
 538 196 538 196 538 251 c 2,29,-1
 538 265 l 1,30,-1
 344 265 l 1,31,-1
 344 385 l 1,32,-1
 674 385 l 1,33,-1
 674 251 l 2,34,35
 674 178 674 178 642 121 c 128,-1,36
 610 64 610 64 552 32 c 128,-1,37
 494 0 494 0 420 0 c 2,38,-1
 302 0 l 2,39,0
 225 0 225 0 166 33 c 128,-1,1
EndSplineSet
Validated: 1
EndChar

StartChar: H
Encoding: 42 72 10
Width: 726
GlyphClass: 2
Flags: W
AnchorPoint: "Anchor-6" 0 0 basechar 0
AnchorPoint: "Anchor-5" 359 700 basechar 0
AnchorPoint: "Anchor-4" 0 0 basechar 0
AnchorPoint: "Anchor-3" 359 0 basechar 0
LayerCount: 2
Fore
SplineSet
62 700 m 1,0,-1
 200 700 l 1,1,-1
 200 411 l 1,2,-1
 526 411 l 1,3,-1
 526 700 l 1,4,-1
 664 700 l 1,5,-1
 664 0 l 1,6,-1
 526 0 l 1,7,-1
 526 291 l 1,8,-1
 200 291 l 1,9,-1
 200 0 l 1,10,-1
 62 0 l 1,11,-1
 62 700 l 1,0,-1
EndSplineSet
Validated: 1
EndChar

StartChar: I
Encoding: 43 73 11
Width: 282
GlyphClass: 2
Flags: W
AnchorPoint: "Anchor-6" 0 0 basechar 0
AnchorPoint: "Anchor-5" 141 700 basechar 0
AnchorPoint: "Anchor-4" 210 0 basechar 0
AnchorPoint: "Anchor-3" 141 0 basechar 0
LayerCount: 2
Fore
SplineSet
72 700 m 1,0,-1
 210 700 l 1,1,-1
 210 0 l 1,2,-1
 72 0 l 1,3,-1
 72 700 l 1,0,-1
EndSplineSet
Validated: 1
EndChar

StartChar: J
Encoding: 44 74 12
Width: 605
GlyphClass: 2
Flags: W
AnchorPoint: "Anchor-6" 0 8 basechar 0
AnchorPoint: "Anchor-5" 480 700 basechar 0
AnchorPoint: "Anchor-4" 0 8 basechar 0
AnchorPoint: "Anchor-3" 276 8 basechar 0
LayerCount: 2
Fore
SplineSet
124.5 31.5 m 128,-1,1
 73 63 73 63 44.5 120.5 c 128,-1,2
 16 178 16 178 16 253 c 1,3,-1
 152 253 l 1,4,5
 152 194 152 194 177.5 158 c 128,-1,6
 203 122 203 122 244 122 c 2,7,-1
 321 122 l 2,8,9
 362 122 362 122 387.5 159.5 c 128,-1,10
 413 197 413 197 413 258 c 2,11,-1
 413 700 l 1,12,-1
 551 700 l 1,13,-1
 551 252 l 2,14,15
 551 177 551 177 523 120 c 128,-1,16
 495 63 495 63 444 31.5 c 128,-1,17
 393 0 393 0 327 0 c 2,18,-1
 244 0 l 2,19,0
 176 0 176 0 124.5 31.5 c 128,-1,1
EndSplineSet
Validated: 1
EndChar

StartChar: K
Encoding: 45 75 13
Width: 674
GlyphClass: 2
Flags: W
AnchorPoint: "Anchor-6" 0 0 basechar 0
AnchorPoint: "Anchor-5" 345 700 basechar 0
AnchorPoint: "Anchor-4" 0 0 basechar 0
AnchorPoint: "Anchor-3" 337 0 basechar 0
LayerCount: 2
Fore
SplineSet
498 0 m 1,0,-1
 267 294 l 1,1,-1
 200 222 l 1,2,-1
 200 0 l 1,3,-1
 62 0 l 1,4,-1
 62 700 l 1,5,-1
 200 700 l 1,6,-1
 200 398 l 1,7,-1
 478 700 l 1,8,-1
 648 700 l 1,9,-1
 360 393 l 1,10,-1
 666 0 l 1,11,-1
 498 0 l 1,0,-1
EndSplineSet
Validated: 1
EndChar

StartChar: L
Encoding: 46 76 14
Width: 588
GlyphClass: 2
Flags: W
AnchorPoint: "Anchor-6" 550 700 basechar 0
AnchorPoint: "Anchor-5" 131 700 basechar 0
AnchorPoint: "Anchor-4" 0 0 basechar 0
AnchorPoint: "Anchor-3" 326 0 basechar 0
LayerCount: 2
Fore
SplineSet
62 700 m 5,0,-1
 200 700 l 1,1,-1
 200 120 l 1,2,-1
 580 120 l 1,3,-1
 580 0 l 1,4,-1
 62 0 l 5,5,-1
 62 700 l 5,0,-1
EndSplineSet
Validated: 1
EndChar

StartChar: M
Encoding: 47 77 15
Width: 823
GlyphClass: 2
Flags: W
AnchorPoint: "Anchor-6" 0 0 basechar 0
AnchorPoint: "Anchor-5" 414 700 basechar 0
AnchorPoint: "Anchor-4" 0 0 basechar 0
AnchorPoint: "Anchor-3" 413 0 basechar 0
LayerCount: 2
Fore
SplineSet
62 700 m 1,0,-1
 185 700 l 1,1,-1
 414 284 l 1,2,-1
 638 700 l 1,3,-1
 761 700 l 1,4,-1
 761 0 l 1,5,-1
 626 0 l 1,6,-1
 626 443 l 1,7,-1
 453 127 l 1,8,-1
 375 127 l 1,9,-1
 197 443 l 1,10,-1
 197 0 l 1,11,-1
 62 0 l 1,12,-1
 62 700 l 1,0,-1
EndSplineSet
Validated: 1
EndChar

StartChar: N
Encoding: 48 78 16
Width: 718
GlyphClass: 2
Flags: W
AnchorPoint: "Anchor-6" 0 0 basechar 0
AnchorPoint: "Anchor-5" 359 700 basechar 0
AnchorPoint: "Anchor-4" 0 0 basechar 0
AnchorPoint: "Anchor-3" 359 0 basechar 0
LayerCount: 2
Fore
SplineSet
62 700 m 1,0,-1
 185 700 l 1,1,-1
 521 224 l 1,2,-1
 521 700 l 1,3,-1
 656 700 l 1,4,-1
 656 0 l 1,5,-1
 533 0 l 1,6,-1
 197 476 l 1,7,-1
 197 0 l 1,8,-1
 62 0 l 1,9,-1
 62 700 l 1,0,-1
EndSplineSet
Validated: 1
EndChar

StartChar: O
Encoding: 49 79 17
Width: 724
GlyphClass: 2
Flags: W
AnchorPoint: "Anchor-6" 667 507 basechar 0
AnchorPoint: "Anchor-5" 362 692 basechar 0
AnchorPoint: "Anchor-4" 432 18 basechar 0
AnchorPoint: "Anchor-3" 362 8 basechar 0
LayerCount: 2
Fore
SplineSet
169.5 33.5 m 128,-1,1
 109 67 109 67 75.5 127.5 c 128,-1,2
 42 188 42 188 42 268 c 2,3,-1
 42 432 l 6,4,5
 42 512 42 512 75.5 572.5 c 132,-1,6
 109 633 109 633 169.5 666.5 c 132,-1,7
 230 700 230 700 309 700 c 6,8,-1
 415 700 l 6,9,10
 494 700 494 700 554.5 666.5 c 132,-1,11
 615 633 615 633 648.5 572.5 c 132,-1,12
 682 512 682 512 682 432 c 6,13,-1
 682 268 l 2,14,15
 682 188 682 188 648.5 127.5 c 128,-1,16
 615 67 615 67 554.5 33.5 c 128,-1,17
 494 0 494 0 415 0 c 2,18,-1
 309 0 l 2,19,0
 230 0 230 0 169.5 33.5 c 128,-1,1
415 122 m 2,20,21
 473 122 473 122 508.5 164 c 128,-1,22
 544 206 544 206 544 274 c 2,23,-1
 544 426 l 6,24,25
 544 494 544 494 508.5 536 c 132,-1,26
 473 578 473 578 415 578 c 6,27,-1
 309 578 l 6,28,29
 251 578 251 578 215.5 536 c 132,-1,30
 180 494 180 494 180 426 c 6,31,-1
 180 274 l 2,32,33
 180 206 180 206 215.5 164 c 128,-1,34
 251 122 251 122 309 122 c 2,35,-1
 415 122 l 2,20,21
EndSplineSet
Validated: 513
Substitution2: "Single Substitution lookup 19 subtable" ordmasculine
Substitution2: "'aalt' Access All Alternates lookup 0 subtable" ordmasculine
EndChar

StartChar: P
Encoding: 50 80 18
Width: 652
GlyphClass: 2
Flags: W
AnchorPoint: "Anchor-6" 0 0 basechar 0
AnchorPoint: "Anchor-5" 335 700 basechar 0
AnchorPoint: "Anchor-4" 0 0 basechar 0
AnchorPoint: "Anchor-3" 335 0 basechar 0
LayerCount: 2
Fore
SplineSet
62 700 m 1,0,-1
 431 700 l 2,1,2
 492 700 492 700 539 676.5 c 128,-1,3
 586 653 586 653 612 609.5 c 128,-1,4
 638 566 638 566 638 510 c 2,5,-1
 638 417 l 2,6,7
 638 359 638 359 611 314.5 c 128,-1,8
 584 270 584 270 535.5 245.5 c 128,-1,9
 487 221 487 221 423 221 c 2,10,-1
 200 221 l 1,11,-1
 200 0 l 1,12,-1
 62 0 l 1,13,-1
 62 700 l 1,0,-1
421 341 m 2,14,15
 456 341 456 341 478 363.5 c 128,-1,16
 500 386 500 386 500 423 c 2,17,-1
 500 504 l 2,18,19
 500 539 500 539 480.5 559.5 c 128,-1,20
 461 580 461 580 429 580 c 2,21,-1
 200 580 l 1,22,-1
 200 341 l 1,23,-1
 421 341 l 2,14,15
EndSplineSet
Validated: 1
EndChar

StartChar: Q
Encoding: 51 81 19
Width: 728
GlyphClass: 2
Flags: W
AnchorPoint: "Anchor-6" 0 8 basechar 0
AnchorPoint: "Anchor-5" 366 692 basechar 0
AnchorPoint: "Anchor-4" 0 8 basechar 0
AnchorPoint: "Anchor-3" 366 8 basechar 0
LayerCount: 2
Fore
SplineSet
627 -41 m 1,0,-1
 546 39 l 1,1,2
 484 0 484 0 415 0 c 2,3,-1
 309 0 l 2,4,5
 230 0 230 0 169.5 33.5 c 128,-1,6
 109 67 109 67 75.5 127.5 c 128,-1,7
 42 188 42 188 42 268 c 2,8,-1
 42 432 l 2,9,10
 42 512 42 512 75.5 572.5 c 128,-1,11
 109 633 109 633 169.5 666.5 c 128,-1,12
 230 700 230 700 309 700 c 2,13,-1
 415 700 l 2,14,15
 494 700 494 700 554.5 666.5 c 128,-1,16
 615 633 615 633 648.5 572.5 c 128,-1,17
 682 512 682 512 682 432 c 2,18,-1
 682 276 l 2,19,20
 682 198 682 198 636 128 c 1,21,-1
 714 51 l 1,22,-1
 627 -41 l 1,0,-1
453 130 m 1,24,-1
 362 220 l 1,25,-1
 449 312 l 1,26,-1
 536 226 l 1,27,28
 544 252 544 252 544 276 c 2,29,-1
 544 426 l 2,30,31
 544 494 544 494 508.5 536 c 128,-1,32
 473 578 473 578 415 578 c 2,33,-1
 309 578 l 2,34,35
 251 578 251 578 215.5 536 c 128,-1,36
 180 494 180 494 180 426 c 2,37,-1
 180 274 l 2,38,39
 180 206 180 206 215.5 164 c 128,-1,40
 251 122 251 122 309 122 c 2,41,-1
 415 122 l 2,42,23
 434 122 434 122 453 130 c 1,24,-1
EndSplineSet
Validated: 1
EndChar

StartChar: R
Encoding: 52 82 20
Width: 678
GlyphClass: 2
Flags: W
AnchorPoint: "Anchor-6" 0 0 basechar 0
AnchorPoint: "Anchor-5" 334 700 basechar 0
AnchorPoint: "Anchor-4" 0 0 basechar 0
AnchorPoint: "Anchor-3" 349 0 basechar 0
LayerCount: 2
Fore
SplineSet
62 700 m 1,0,-1
 434 700 l 2,1,2
 525 700 525 700 580.5 651 c 128,-1,3
 636 602 636 602 636 522 c 2,4,-1
 636 452 l 2,5,6
 636 400 636 400 606.5 361.5 c 128,-1,7
 577 323 577 323 521 303 c 1,8,-1
 521 301 l 1,9,10
 553 280 553 280 569.5 253 c 128,-1,11
 586 226 586 226 602 178 c 2,12,-1
 658 0 l 1,13,-1
 515 0 l 1,14,-1
 462 166 l 2,15,16
 449 209 449 209 426 230 c 128,-1,17
 403 251 403 251 369 251 c 2,18,-1
 200 251 l 1,19,-1
 200 0 l 1,20,-1
 62 0 l 1,21,-1
 62 700 l 1,0,-1
408 370 m 2,22,23
 450 370 450 370 474 392.5 c 128,-1,24
 498 415 498 415 498 451 c 2,25,-1
 498 516 l 2,26,27
 498 545 498 545 480 562.5 c 128,-1,28
 462 580 462 580 432 580 c 2,29,-1
 200 580 l 1,30,-1
 200 370 l 1,31,-1
 408 370 l 2,22,23
EndSplineSet
Validated: 1
EndChar

StartChar: S
Encoding: 53 83 21
Width: 656
GlyphClass: 2
Flags: W
AnchorPoint: "Anchor-6" 0 0 basechar 0
AnchorPoint: "Anchor-5" 328 692 basechar 0
AnchorPoint: "Anchor-4" 0 0 basechar 0
AnchorPoint: "Anchor-3" 341 8 basechar 0
LayerCount: 2
Fore
SplineSet
100 61.5 m 128,-1,1
 38 123 38 123 38 233 c 1,2,-1
 174 233 l 1,3,4
 174 181 174 181 200.5 151.5 c 128,-1,5
 227 122 227 122 274 122 c 2,6,-1
 385 122 l 2,7,8
 429 122 429 122 456.5 140.5 c 128,-1,9
 484 159 484 159 484 190 c 2,10,-1
 484 216 l 2,11,12
 484 265 484 265 412 277 c 2,13,-1
 228 308 l 2,14,15
 138 323 138 323 91.5 365.5 c 128,-1,16
 45 408 45 408 45 474 c 2,17,-1
 45 522 l 2,18,19
 45 575 45 575 73.5 615.5 c 128,-1,20
 102 656 102 656 154.5 678 c 128,-1,21
 207 700 207 700 276 700 c 2,22,-1
 389 700 l 2,23,24
 454 700 454 700 504 673 c 128,-1,25
 554 646 554 646 581.5 597.5 c 128,-1,26
 609 549 609 549 609 485 c 1,27,-1
 473 485 l 1,28,29
 473 527 473 527 450 552.5 c 128,-1,30
 427 578 427 578 389 578 c 2,31,-1
 276 578 l 2,32,33
 234 578 234 578 208.5 560 c 128,-1,34
 183 542 183 542 183 512 c 2,35,-1
 183 493 l 2,36,37
 183 443 183 443 252 431 c 2,38,-1
 435 399 l 2,39,40
 526 383 526 383 574 342.5 c 128,-1,41
 622 302 622 302 622 238 c 2,42,-1
 622 180 l 2,43,44
 622 127 622 127 592.5 86 c 128,-1,45
 563 45 563 45 510 22.5 c 128,-1,46
 457 0 457 0 387 0 c 2,47,-1
 272 0 l 2,48,0
 162 0 162 0 100 61.5 c 128,-1,1
EndSplineSet
Validated: 1
EndChar

StartChar: T
Encoding: 54 84 22
Width: 606
GlyphClass: 2
Flags: W
AnchorPoint: "Anchor-6" 0 0 basechar 0
AnchorPoint: "Anchor-5" 299 700 basechar 0
AnchorPoint: "Anchor-4" 0 0 basechar 0
AnchorPoint: "Anchor-3" 299 0 basechar 0
LayerCount: 2
Fore
SplineSet
234 580 m 1,0,-1
 12 580 l 1,1,-1
 12 700 l 1,2,-1
 594 700 l 1,3,-1
 594 580 l 1,4,-1
 372 580 l 1,5,-1
 372 0 l 1,6,-1
 234 0 l 1,7,-1
 234 580 l 1,0,-1
EndSplineSet
Validated: 1
EndChar

StartChar: U
Encoding: 55 85 23
Width: 720
GlyphClass: 2
Flags: W
AnchorPoint: "Anchor-6" 677 508 basechar 0
AnchorPoint: "Anchor-5" 360 700 basechar 0
AnchorPoint: "Anchor-4" 475 8 basechar 0
AnchorPoint: "Anchor-3" 360 8 basechar 0
LayerCount: 2
Fore
SplineSet
176 31.5 m 132,-1,1
 120 63 120 63 89 120 c 132,-1,2
 58 177 58 177 58 252 c 6,3,-1
 58 700 l 1,4,-1
 196 700 l 1,5,-1
 196 256 l 6,6,7
 196 196 196 196 226.5 159 c 132,-1,8
 257 122 257 122 306 122 c 6,9,-1
 412 122 l 6,10,11
 462 122 462 122 493 159 c 132,-1,12
 524 196 524 196 524 256 c 6,13,-1
 524 700 l 1,14,-1
 662 700 l 1,15,-1
 662 252 l 6,16,17
 662 177 662 177 631 120 c 132,-1,18
 600 63 600 63 543 31.5 c 132,-1,19
 486 0 486 0 412 0 c 6,20,-1
 306 0 l 6,21,0
 232 0 232 0 176 31.5 c 132,-1,1
EndSplineSet
Validated: 1
EndChar

StartChar: V
Encoding: 56 86 24
Width: 666
GlyphClass: 2
Flags: W
AnchorPoint: "Anchor-6" 0 0 basechar 0
AnchorPoint: "Anchor-5" 333 700 basechar 0
AnchorPoint: "Anchor-4" 0 0 basechar 0
AnchorPoint: "Anchor-3" 333 0 basechar 0
LayerCount: 2
Fore
SplineSet
4 700 m 1,0,-1
 148 700 l 1,1,-1
 332 175 l 1,2,-1
 334 175 l 1,3,-1
 519 700 l 1,4,-1
 662 700 l 1,5,-1
 393 0 l 1,6,-1
 269 0 l 1,7,-1
 4 700 l 1,0,-1
EndSplineSet
Validated: 1
EndChar

StartChar: W
Encoding: 57 87 25
Width: 877
GlyphClass: 2
Flags: W
AnchorPoint: "Anchor-6" 0 0 basechar 0
AnchorPoint: "Anchor-5" 440 700 basechar 0
AnchorPoint: "Anchor-4" 0 0 basechar 0
AnchorPoint: "Anchor-3" 443 0 basechar 0
LayerCount: 2
Fore
SplineSet
16 700 m 1,0,-1
 156 700 l 1,1,-1
 242 203 l 1,2,-1
 244 203 l 1,3,-1
 389 663 l 1,4,-1
 491 663 l 1,5,-1
 633 204 l 1,6,-1
 635 204 l 1,7,-1
 721 700 l 1,8,-1
 861 700 l 1,9,-1
 720 0 l 1,10,-1
 590 0 l 1,11,-1
 441 480 l 1,12,-1
 439 480 l 1,13,-1
 287 0 l 1,14,-1
 156 0 l 1,15,-1
 16 700 l 1,0,-1
EndSplineSet
Validated: 1
EndChar

StartChar: X
Encoding: 58 88 26
Width: 641
GlyphClass: 2
Flags: W
AnchorPoint: "Anchor-6" 0 0 basechar 0
AnchorPoint: "Anchor-5" 320 700 basechar 0
AnchorPoint: "Anchor-4" 0 0 basechar 0
AnchorPoint: "Anchor-3" 320 0 basechar 0
LayerCount: 2
Fore
SplineSet
242 357 m 1,0,-1
 8 700 l 1,1,-1
 165 700 l 1,2,-1
 321 470 l 1,3,-1
 477 700 l 1,4,-1
 633 700 l 1,5,-1
 399 357 l 1,6,-1
 643 0 l 1,7,-1
 486 0 l 1,8,-1
 321 244 l 1,9,-1
 155 0 l 1,10,-1
 -2 0 l 1,11,-1
 242 357 l 1,0,-1
EndSplineSet
Validated: 1
EndChar

StartChar: Y
Encoding: 59 89 27
Width: 652
GlyphClass: 2
Flags: W
AnchorPoint: "Anchor-6" 0 0 basechar 0
AnchorPoint: "Anchor-5" 326 700 basechar 0
AnchorPoint: "Anchor-4" 0 0 basechar 0
AnchorPoint: "Anchor-3" 326 0 basechar 0
LayerCount: 2
Fore
SplineSet
257 272 m 1,0,-1
 -2 700 l 1,1,-1
 148 700 l 1,2,-1
 326 399 l 1,3,-1
 504 700 l 1,4,-1
 654 700 l 1,5,-1
 395 272 l 1,6,-1
 395 0 l 1,7,-1
 257 0 l 1,8,-1
 257 272 l 1,0,-1
EndSplineSet
Validated: 1
EndChar

StartChar: Z
Encoding: 60 90 28
Width: 606
GlyphClass: 2
Flags: W
AnchorPoint: "Anchor-6" 0 0 basechar 0
AnchorPoint: "Anchor-5" 303 700 basechar 0
AnchorPoint: "Anchor-4" 0 0 basechar 0
AnchorPoint: "Anchor-3" 303 0 basechar 0
LayerCount: 2
Fore
SplineSet
22 68 m 1,0,-1
 393 582 l 1,1,-1
 40 582 l 1,2,-1
 40 700 l 1,3,-1
 584 700 l 1,4,-1
 584 632 l 1,5,-1
 211 118 l 1,6,-1
 574 118 l 1,7,-1
 574 0 l 1,8,-1
 22 0 l 1,9,-1
 22 68 l 1,0,-1
EndSplineSet
Validated: 1
EndChar

StartChar: a
Encoding: 67 97 29
Width: 584
GlyphClass: 2
Flags: W
AnchorPoint: "Anchor-6" 0 0 basechar 0
AnchorPoint: "Anchor-5" 298 493 basechar 0
AnchorPoint: "Anchor-4" 532 0 basechar 0
AnchorPoint: "Anchor-3" 304 8 basechar 0
LayerCount: 2
Fore
SplineSet
90 39 m 128,-1,1
 42 78 42 78 42 142 c 2,2,-1
 42 171 l 2,3,4
 42 234 42 234 92 272.5 c 128,-1,5
 142 311 142 311 224 311 c 2,6,-1
 285 311 l 2,7,8
 311 311 311 311 341 304 c 128,-1,9
 371 297 371 297 396 285 c 1,10,-1
 396 330 l 2,11,12
 396 355 396 355 379.5 370.5 c 128,-1,13
 363 386 363 386 336 386 c 2,14,-1
 250 386 l 2,15,16
 222 386 222 386 205 383 c 128,-1,17
 188 380 188 380 188 365 c 1,18,-1
 56 365 l 1,19,20
 56 431 56 431 109.5 465.5 c 128,-1,21
 163 500 163 500 250 500 c 2,22,-1
 336 500 l 2,23,24
 424 500 424 500 478 453.5 c 128,-1,25
 532 407 532 407 532 330 c 2,26,-1
 532 0 l 1,27,-1
 406 0 l 1,28,-1
 406 60 l 1,29,30
 391 42 391 42 347 18.5 c 0,31,32
 312 0 312 0 278 0 c 2,33,-1
 216 0 l 2,34,0
 138 0 138 0 90 39 c 128,-1,1
288 104 m 2,35,36
 325 104 325 104 354 123 c 128,-1,37
 383 142 383 142 396 174 c 1,38,-1
 396 183 l 1,39,40
 380 195 380 195 351.5 202 c 128,-1,41
 323 209 323 209 291 209 c 2,42,-1
 228 209 l 2,43,44
 204 209 204 209 189 197 c 128,-1,45
 174 185 174 185 174 165 c 2,46,-1
 174 147 l 2,47,48
 174 128 174 128 190.5 116 c 128,-1,49
 207 104 207 104 234 104 c 2,50,-1
 288 104 l 2,35,36
EndSplineSet
Validated: 513
Substitution2: "Single Substitution lookup 19 subtable" ordfeminine
Substitution2: "'aalt' Access All Alternates lookup 0 subtable" ordfeminine
EndChar

StartChar: b
Encoding: 68 98 30
Width: 604
GlyphClass: 2
Flags: W
AnchorPoint: "Anchor-6" 0 0 basechar 0
AnchorPoint: "Anchor-5" 294 700 basechar 0
AnchorPoint: "Anchor-4" 0 0 basechar 0
AnchorPoint: "Anchor-3" 294 8 basechar 0
LayerCount: 2
Fore
SplineSet
236 20 m 0,0,1
 196 48 196 48 184 64 c 1,2,-1
 184 0 l 1,3,-1
 58 0 l 1,4,-1
 58 700 l 1,5,-1
 194 700 l 1,6,-1
 194 460 l 1,7,8
 203 469 203 469 243.5 487 c 0,9,10
 273 500 273 500 300 500 c 2,11,-1
 370 500 l 2,12,13
 428 500 428 500 472.5 475.5 c 128,-1,14
 517 451 517 451 541.5 406 c 128,-1,15
 566 361 566 361 566 302 c 2,16,-1
 566 203 l 2,17,18
 566 143 566 143 541 97 c 128,-1,19
 516 51 516 51 471 25.5 c 128,-1,20
 426 0 426 0 368 0 c 2,21,-1
 299 0 l 2,22,23
 266 0 266 0 236 20 c 0,0,1
352 119 m 2,24,25
 387 119 387 119 408.5 145 c 128,-1,26
 430 171 430 171 430 213 c 2,27,-1
 430 292 l 2,28,29
 430 332 430 332 409 356.5 c 128,-1,30
 388 381 388 381 354 381 c 2,31,-1
 292 381 l 2,32,33
 252 381 252 381 225 353 c 128,-1,34
 198 325 198 325 194 279 c 1,35,-1
 194 208 l 1,36,37
 201 168 201 168 226.5 143.5 c 128,-1,38
 252 119 252 119 287 119 c 2,39,-1
 352 119 l 2,24,25
EndSplineSet
Validated: 1
EndChar

StartChar: c
Encoding: 69 99 31
Width: 560
GlyphClass: 2
Flags: W
AnchorPoint: "Anchor-6" 0 8 basechar 0
AnchorPoint: "Anchor-5" 285 493 basechar 0
AnchorPoint: "Anchor-4" 0 8 basechar 0
AnchorPoint: "Anchor-3" 294 8 basechar 0
LayerCount: 2
Fore
SplineSet
139.5 25 m 128,-1,1
 91 50 91 50 64.5 95 c 128,-1,2
 38 140 38 140 38 199 c 2,3,-1
 38 301 l 2,4,5
 38 360 38 360 64.5 405 c 128,-1,6
 91 450 91 450 139 475 c 128,-1,7
 187 500 187 500 250 500 c 2,8,-1
 329 500 l 2,9,10
 389 500 389 500 435 476 c 128,-1,11
 481 452 481 452 506 408.5 c 128,-1,12
 531 365 531 365 531 308 c 1,13,-1
 396 308 l 1,14,15
 396 342 396 342 377.5 362.5 c 128,-1,16
 359 383 359 383 329 383 c 2,17,-1
 252 383 l 2,18,19
 217 383 217 383 195.5 357.5 c 128,-1,20
 174 332 174 332 174 291 c 2,21,-1
 174 209 l 2,22,23
 174 168 174 168 196 142.5 c 128,-1,24
 218 117 218 117 253 117 c 2,25,-1
 330 117 l 2,26,27
 362 117 362 117 381.5 140 c 128,-1,28
 401 163 401 163 401 201 c 1,29,-1
 536 201 l 1,30,31
 536 110 536 110 479.5 55 c 128,-1,32
 423 0 423 0 330 0 c 2,33,-1
 251 0 l 2,34,0
 188 0 188 0 139.5 25 c 128,-1,1
EndSplineSet
Validated: 1
EndChar

StartChar: d
Encoding: 70 100 32
Width: 604
GlyphClass: 2
Flags: W
AnchorPoint: "Anchor-6" 552 470 basechar 0
AnchorPoint: "Anchor-5" 298 700 basechar 0
AnchorPoint: "Anchor-4" 0 0 basechar 0
AnchorPoint: "Anchor-3" 298 8 basechar 0
LayerCount: 2
Fore
SplineSet
92.5 54 m 128,-1,1
 38 108 38 108 38 196 c 2,2,-1
 38 295 l 2,3,4
 38 356 38 356 64 402.5 c 128,-1,5
 90 449 90 449 137 474.5 c 128,-1,6
 184 500 184 500 246 500 c 2,7,-1
 301 500 l 2,8,9
 330 500 330 500 360 487.5 c 0,10,11
 403 468 403 468 410 461 c 1,12,-1
 410 700 l 1,13,-1
 546 700 l 1,14,-1
 546 0 l 1,15,-1
 420 0 l 1,16,-1
 420 66 l 1,17,18
 404 44 404 44 366 20.5 c 0,19,20
 332 0 332 0 295 0 c 2,21,-1
 236 0 l 2,22,0
 147 0 147 0 92.5 54 c 128,-1,1
310 117 m 2,23,24
 351 117 351 117 378.5 146.5 c 128,-1,25
 406 176 406 176 410 225 c 1,26,-1
 410 297 l 1,27,28
 403 336 403 336 379.5 359.5 c 128,-1,29
 356 383 356 383 324 383 c 2,30,-1
 263 383 l 2,31,32
 223 383 223 383 198.5 356 c 128,-1,33
 174 329 174 329 174 285 c 2,34,-1
 174 206 l 2,35,36
 174 166 174 166 196 141.5 c 128,-1,37
 218 117 218 117 253 117 c 2,38,-1
 310 117 l 2,23,24
EndSplineSet
Validated: 1
EndChar

StartChar: e
Encoding: 71 101 33
Width: 578
GlyphClass: 2
Flags: W
AnchorPoint: "Anchor-6" 0 8 basechar 0
AnchorPoint: "Anchor-5" 290 493 basechar 0
AnchorPoint: "Anchor-4" 399 8 basechar 0
AnchorPoint: "Anchor-3" 292 8 basechar 0
LayerCount: 2
Fore
SplineSet
140.5 23.5 m 128,-1,1
 92 47 92 47 65 89.5 c 128,-1,2
 38 132 38 132 38 187 c 2,3,-1
 38 301 l 2,4,5
 38 360 38 360 65 405 c 128,-1,6
 92 450 92 450 140.5 475 c 128,-1,7
 189 500 189 500 252 500 c 2,8,-1
 332 500 l 2,9,10
 428 500 428 500 486 446 c 128,-1,11
 544 392 544 392 544 302 c 2,12,-1
 544 203 l 1,13,-1
 174 203 l 1,14,-1
 174 187 l 2,15,16
 174 154 174 154 195 134 c 128,-1,17
 216 114 216 114 252 114 c 2,18,-1
 330 114 l 2,19,20
 365 114 365 114 386.5 114.5 c 128,-1,21
 408 115 408 115 408 132 c 5,22,-1
 542 132 l 5,23,24
 542 90 542 90 515 66 c 128,-1,25
 488 42 488 42 439.5 21 c 128,-1,26
 391 0 391 0 328 0 c 2,27,-1
 252 0 l 2,28,0
 189 0 189 0 140.5 23.5 c 128,-1,1
410 301 m 1,29,-1
 410 302 l 2,30,31
 410 341 410 341 389 364.5 c 128,-1,32
 368 388 368 388 333 388 c 2,33,-1
 252 388 l 2,34,35
 216 388 216 388 194 365.5 c 128,-1,36
 172 343 172 343 172 302 c 2,37,-1
 172 301 l 1,38,-1
 410 301 l 1,29,-1
EndSplineSet
Validated: 1
EndChar

StartChar: f
Encoding: 72 102 34
Width: 379
GlyphClass: 2
Flags: W
AnchorPoint: "Anchor-6" 0 0 basechar 0
AnchorPoint: "Anchor-5" 185 696 basechar 0
AnchorPoint: "Anchor-4" 0 0 basechar 0
AnchorPoint: "Anchor-3" 185 0 basechar 0
LayerCount: 2
Fore
SplineSet
104 383 m 1,0,-1
 18 383 l 1,1,-1
 18 500 l 1,2,-1
 104 500 l 1,3,-1
 104 528 l 2,4,5
 104 609 104 609 155.5 654.5 c 128,-1,6
 207 700 207 700 299 700 c 2,7,-1
 371 700 l 1,8,-1
 371 584 l 1,9,-1
 301 584 l 2,10,11
 269 584 269 584 254.5 570 c 128,-1,12
 240 556 240 556 240 526 c 2,13,-1
 240 500 l 1,14,-1
 360 500 l 1,15,-1
 360 383 l 1,16,-1
 240 383 l 1,17,-1
 240 0 l 1,18,-1
 104 0 l 1,19,-1
 104 383 l 1,0,-1
EndSplineSet
Validated: 1
EndChar

StartChar: g
Encoding: 73 103 35
Width: 606
GlyphClass: 2
Flags: W
AnchorPoint: "Anchor-6" 0 0 basechar 0
AnchorPoint: "Anchor-5" 296 493 basechar 0
AnchorPoint: "Anchor-4" 0 0 basechar 0
AnchorPoint: "Anchor-3" 296 -200 basechar 0
LayerCount: 2
Fore
SplineSet
119 -164.5 m 128,-1,1
 66 -129 66 -129 60 -58 c 1,2,-1
 194 -58 l 1,3,4
 196 -77 196 -77 212 -80.5 c 128,-1,5
 228 -84 228 -84 252 -84 c 2,6,-1
 342 -84 l 2,7,8
 373 -84 373 -84 392.5 -58.5 c 128,-1,9
 412 -33 412 -33 412 8 c 2,10,-1
 412 52 l 1,11,12
 384 22 384 22 363.5 13 c 0,13,14
 335 0 335 0 309 0 c 2,15,-1
 240 0 l 2,16,17
 149 0 149 0 93.5 54 c 128,-1,18
 38 108 38 108 38 196 c 2,19,-1
 38 295 l 2,20,21
 38 356 38 356 64 402.5 c 128,-1,22
 90 449 90 449 137 474.5 c 128,-1,23
 184 500 184 500 245 500 c 2,24,-1
 303 500 l 2,25,26
 340 500 340 500 369.5 484 c 0,27,28
 412 461 412 461 422 449 c 1,29,-1
 422 500 l 1,30,-1
 548 500 l 1,31,-1
 548 8 l 2,32,33
 548 -54 548 -54 522.5 -101 c 128,-1,34
 497 -148 497 -148 450 -174 c 128,-1,35
 403 -200 403 -200 342 -200 c 2,36,-1
 252 -200 l 2,37,0
 172 -200 172 -200 119 -164.5 c 128,-1,1
318 115 m 2,38,39
 356 115 356 115 382 146.5 c 128,-1,40
 408 178 408 178 412 229 c 1,41,-1
 412 295 l 1,42,43
 408 335 408 335 385 359 c 128,-1,44
 362 383 362 383 327 383 c 2,45,-1
 257 383 l 2,46,47
 220 383 220 383 197 356 c 128,-1,48
 174 329 174 329 174 285 c 2,49,-1
 174 206 l 2,50,51
 174 165 174 165 195 140 c 128,-1,52
 216 115 216 115 249 115 c 2,53,-1
 318 115 l 2,38,39
EndSplineSet
Validated: 1
EndChar

StartChar: h
Encoding: 74 104 36
Width: 602
GlyphClass: 2
Flags: W
AnchorPoint: "Anchor-6" 0 0 basechar 0
AnchorPoint: "Anchor-5" 304 700 basechar 0
AnchorPoint: "Anchor-4" 0 0 basechar 0
AnchorPoint: "Anchor-3" 304 0 basechar 0
LayerCount: 2
Fore
SplineSet
58 700 m 1,0,-1
 194 700 l 1,1,-1
 194 449 l 1,2,3
 203 461 203 461 248.5 484 c 0,4,5
 281 500 281 500 311 500 c 2,6,-1
 373 500 l 2,7,8
 453 500 453 500 501.5 450 c 128,-1,9
 550 400 550 400 550 318 c 2,10,-1
 550 0 l 1,11,-1
 414 0 l 1,12,-1
 414 313 l 2,13,14
 414 344 414 344 397.5 363 c 128,-1,15
 381 382 381 382 355 382 c 2,16,-1
 293 382 l 2,17,18
 258 382 258 382 230.5 356.5 c 128,-1,19
 203 331 203 331 194 290 c 1,20,-1
 194 0 l 1,21,-1
 58 0 l 1,22,-1
 58 700 l 1,0,-1
EndSplineSet
Validated: 1
EndChar

StartChar: i
Encoding: 75 105 37
Width: 288
GlyphClass: 2
Flags: W
AnchorPoint: "Anchor-6" 0 0 basechar 0
AnchorPoint: "Anchor-5" 0 0 basechar 0
AnchorPoint: "Anchor-4" 212 0 basechar 0
AnchorPoint: "Anchor-3" 144 0 basechar 0
LayerCount: 2
Fore
SplineSet
76 700 m 1,0,-1
 212 700 l 1,1,-1
 212 564 l 1,2,-1
 76 564 l 1,3,-1
 76 700 l 1,0,-1
76 500 m 1,4,-1
 212 500 l 1,5,-1
 212 0 l 5,6,-1
 76 0 l 1,7,-1
 76 500 l 1,4,-1
EndSplineSet
Validated: 513
Substitution2: "Single Substitution lookup 14 subtable" dotlessi
Substitution2: "'aalt' Access All Alternates lookup 0 subtable" dotlessi
EndChar

StartChar: j
Encoding: 76 106 38
Width: 300
Flags: W
LayerCount: 2
Fore
SplineSet
88 700 m 1,0,-1
 224 700 l 1,1,-1
 224 564 l 1,2,-1
 88 564 l 1,3,-1
 88 700 l 1,0,-1
-44 -84 m 1,4,-1
 18 -84 l 2,5,6
 54 -84 54 -84 71 -60.5 c 128,-1,7
 88 -37 88 -37 88 12 c 2,8,-1
 88 500 l 1,9,-1
 224 500 l 1,10,-1
 224 17 l 2,11,12
 224 -95 224 -95 174 -147.5 c 128,-1,13
 124 -200 124 -200 18 -200 c 2,14,-1
 -44 -200 l 1,15,-1
 -44 -84 l 1,4,-1
EndSplineSet
Validated: 513
Substitution2: "Single Substitution lookup 14 subtable" uni0237
Substitution2: "'aalt' Access All Alternates lookup 0 subtable" uni0237
EndChar

StartChar: k
Encoding: 77 107 39
Width: 555
GlyphClass: 2
Flags: W
AnchorPoint: "Anchor-6" 0 0 basechar 0
AnchorPoint: "Anchor-5" 288 700 basechar 0
AnchorPoint: "Anchor-4" 0 0 basechar 0
AnchorPoint: "Anchor-3" 289 0 basechar 0
LayerCount: 2
Fore
SplineSet
403 0 m 1,0,-1
 247 200 l 1,1,-1
 194 147 l 1,2,-1
 194 0 l 1,3,-1
 58 0 l 1,4,-1
 58 700 l 1,5,-1
 194 700 l 1,6,-1
 194 300 l 1,7,-1
 391 500 l 1,8,-1
 549 500 l 1,9,-1
 335 287 l 1,10,-1
 557 0 l 1,11,-1
 403 0 l 1,0,-1
EndSplineSet
Validated: 1
EndChar

StartChar: l
Encoding: 78 108 40
Width: 296
GlyphClass: 2
Flags: W
AnchorPoint: "Anchor-6" 207 470 basechar 0
AnchorPoint: "Anchor-5" 126 700 basechar 0
AnchorPoint: "Anchor-4" 0 0 basechar 0
AnchorPoint: "Anchor-3" 171 0 basechar 0
LayerCount: 2
Fore
SplineSet
99.5 37.5 m 128,-1,1
 58 75 58 75 58 154 c 2,2,-1
 58 700 l 1,3,-1
 194 700 l 1,4,-1
 194 162 l 2,5,6
 194 138 194 138 205 127 c 128,-1,7
 216 116 216 116 240 116 c 2,8,-1
 294 116 l 1,9,-1
 294 0 l 1,10,-1
 230 0 l 2,11,0
 141 0 141 0 99.5 37.5 c 128,-1,1
EndSplineSet
Validated: 1
EndChar

StartChar: m
Encoding: 79 109 41
Width: 848
GlyphClass: 2
Flags: W
AnchorPoint: "Anchor-6" -2 0 basechar 0
AnchorPoint: "Anchor-5" 418 493 basechar 0
AnchorPoint: "Anchor-4" -2 0 basechar 0
AnchorPoint: "Anchor-3" 424 0 basechar 0
LayerCount: 2
Fore
SplineSet
747 450.5 m 128,-1,1
 793 401 793 401 793 328 c 2,2,-1
 793 0 l 1,3,-1
 657 0 l 1,4,-1
 657 328 l 2,5,6
 657 356 657 356 644 372.5 c 128,-1,7
 631 389 631 389 610 389 c 2,8,-1
 567 389 l 2,9,10
 539 389 539 389 518 368.5 c 128,-1,11
 497 348 497 348 492 314 c 1,12,-1
 492 0 l 1,13,-1
 356 0 l 1,14,-1
 356 327 l 2,15,16
 356 355 356 355 343 372 c 128,-1,17
 330 389 330 389 309 389 c 2,18,-1
 270 389 l 2,19,20
 241 389 241 389 219 363 c 128,-1,21
 197 337 197 337 191 295 c 1,22,-1
 191 0 l 1,23,-1
 55 0 l 1,24,-1
 55 500 l 1,25,-1
 181 500 l 1,26,-1
 181 441 l 1,27,28
 194 460 194 460 227.5 482 c 0,29,30
 256 500 256 500 285 500 c 2,31,-1
 341 500 l 2,32,33
 371 500 371 500 406.5 481 c 128,-1,34
 442 462 442 462 453 435 c 1,35,36
 470 458 470 458 505.5 481 c 0,37,38
 536 500 536 500 570 500 c 2,39,-1
 625 500 l 2,40,0
 701 500 701 500 747 450.5 c 128,-1,1
EndSplineSet
Validated: 1
EndChar

StartChar: n
Encoding: 80 110 42
Width: 600
GlyphClass: 2
Flags: W
AnchorPoint: "Anchor-6" 0 0 basechar 0
AnchorPoint: "Anchor-5" 307 493 basechar 0
AnchorPoint: "Anchor-4" 0 0 basechar 0
AnchorPoint: "Anchor-3" 303 0 basechar 0
LayerCount: 2
Fore
SplineSet
58 500 m 1,0,-1
 184 500 l 1,1,-1
 184 439 l 1,2,3
 203.094682231 461.464332036 203.094682231 461.464332036 241 481.5 c 0,4,5
 276 500 276 500 311 500 c 2,6,-1
 371 500 l 2,7,8
 453 500 453 500 500.5 450 c 128,-1,9
 548 400 548 400 548 325 c 2,10,-1
 548 0 l 1,11,-1
 412 0 l 1,12,-1
 412 320 l 2,13,14
 412 351 412 351 395.5 370 c 128,-1,15
 379 389 379 389 353 389 c 2,16,-1
 293 389 l 2,17,18
 258 389 258 389 230.5 363.5 c 128,-1,19
 203 338 203 338 194 297 c 1,20,-1
 194 0 l 1,21,-1
 58 0 l 1,22,-1
 58 500 l 1,0,-1
EndSplineSet
Validated: 1
EndChar

StartChar: o
Encoding: 81 111 43
Width: 594
GlyphClass: 2
Flags: W
AnchorPoint: "Anchor-6" 528 308 basechar 0
AnchorPoint: "Anchor-5" 297 493 basechar 0
AnchorPoint: "Anchor-4" 379 19 basechar 0
AnchorPoint: "Anchor-3" 297 8 basechar 0
LayerCount: 2
Fore
SplineSet
139.5 24.5 m 128,-1,1
 91 49 91 49 64.5 94 c 128,-1,2
 38 139 38 139 38 198 c 2,3,-1
 38 300 l 2,4,5
 38 359 38 359 65 404.5 c 128,-1,6
 92 450 92 450 140.5 475 c 128,-1,7
 189 500 189 500 252 500 c 2,8,-1
 342 500 l 2,9,10
 405 500 405 500 453.5 475 c 128,-1,11
 502 450 502 450 529 404.5 c 128,-1,12
 556 359 556 359 556 300 c 2,13,-1
 556 198 l 2,14,15
 556 139 556 139 529 94 c 128,-1,16
 502 49 502 49 453.5 24.5 c 128,-1,17
 405 0 405 0 341 0 c 2,18,-1
 251 0 l 2,19,0
 188 0 188 0 139.5 24.5 c 128,-1,1
  Spiro
    139.5 24.5 o
    96.5 54.125 o
    64.5 94 o
    44.625 142.5 o
    38 198 [
    38 300 ]
    44.75 355.625 o
    65 404.5 o
    97.375 444.875 o
    140.5 475 o
    192.625 493.75 o
    252 500 [
    342 500 ]
    401.375 493.75 o
    453.5 475 o
    496.625 444.875 o
    529 404.5 o
    549.25 355.625 o
    556 300 [
    556 198 ]
    549.25 142.5 o
    529 94 o
    496.625 54.125 o
    453.5 24.5 o
    401.125 6.125 o
    341 0 [
    251 0 ]
    191.625 6.125 o
    0 0 z
  EndSpiro
339 117 m 2,20,21
 376 117 376 117 398 142.5 c 128,-1,22
 420 168 420 168 420 209 c 2,23,-1
 420 291 l 2,24,25
 420 332 420 332 398 357.5 c 128,-1,26
 376 383 376 383 340 383 c 2,27,-1
 254 383 l 2,28,29
 218 383 218 383 196 357.5 c 128,-1,30
 174 332 174 332 174 291 c 2,31,-1
 174 209 l 2,32,33
 174 168 174 168 196 142.5 c 128,-1,34
 218 117 218 117 253 117 c 2,35,-1
 339 117 l 2,20,21
  Spiro
    339 117 ]
    372.25 123.375 o
    398 142.5 o
    414.5 171.875 o
    420 209 [
    420 291 ]
    414.5 328.125 o
    398 357.5 o
    372.5 376.625 o
    340 383 [
    254 383 ]
    221.5 376.625 o
    196 357.5 o
    179.5 328.125 o
    174 291 [
    174 209 ]
    179.5 171.875 o
    196 142.5 o
    221.25 123.375 o
    253 117 [
    0 0 z
  EndSpiro
EndSplineSet
Validated: 513
Substitution2: "Single Substitution lookup 19 subtable" ordmasculine
Substitution2: "'aalt' Access All Alternates lookup 0 subtable" ordmasculine
EndChar

StartChar: p
Encoding: 82 112 44
Width: 604
GlyphClass: 2
Flags: W
AnchorPoint: "Anchor-6" 0 0 basechar 0
AnchorPoint: "Anchor-5" 294 493 basechar 0
AnchorPoint: "Anchor-4" 0 0 basechar 0
AnchorPoint: "Anchor-3" 294 -200 basechar 0
LayerCount: 2
Fore
SplineSet
58 500 m 1,0,-1
 184 500 l 1,1,-1
 184 445 l 1,2,3
 198 462 198 462 237.5 483 c 0,4,5
 270 500 270 500 301 500 c 2,6,-1
 364 500 l 2,7,8
 424 500 424 500 470 475.5 c 128,-1,9
 516 451 516 451 541 407 c 128,-1,10
 566 363 566 363 566 306 c 2,11,-1
 566 209 l 2,12,13
 566 147 566 147 541 99.5 c 128,-1,14
 516 52 516 52 471 26 c 128,-1,15
 426 0 426 0 367 0 c 2,16,-1
 302 0 l 2,17,18
 274 0 274 0 244.5 13 c 0,19,20
 200 34 200 34 194 40 c 1,21,-1
 194 -200 l 1,22,-1
 58 -200 l 1,23,-1
 58 500 l 1,0,-1
349 117 m 2,24,25
 386 117 386 117 408 145 c 128,-1,26
 430 173 430 173 430 219 c 2,27,-1
 430 296 l 2,28,29
 430 335 430 335 407.5 359 c 128,-1,30
 385 383 385 383 348 383 c 2,31,-1
 287 383 l 2,32,33
 258 383 258 383 232 359.5 c 128,-1,34
 206 336 206 336 194 299 c 1,35,-1
 194 215 l 1,36,37
 199 171 199 171 224.5 144 c 128,-1,38
 250 117 250 117 287 117 c 2,39,-1
 349 117 l 2,24,25
EndSplineSet
Validated: 1
EndChar

StartChar: q
Encoding: 83 113 45
Width: 604
GlyphClass: 2
Flags: W
AnchorPoint: "Anchor-6" 0 0 basechar 0
AnchorPoint: "Anchor-5" 300 493 basechar 0
AnchorPoint: "Anchor-4" 0 0 basechar 0
AnchorPoint: "Anchor-3" 300 -200 basechar 0
LayerCount: 2
Fore
SplineSet
410 42 m 1,0,1
 405 36 405 36 363.5 14 c 0,2,3
 336 0 336 0 310 0 c 2,4,-1
 239 0 l 2,5,6
 148 0 148 0 93 54.5 c 128,-1,7
 38 109 38 109 38 198 c 2,8,-1
 38 295 l 2,9,10
 38 356 38 356 63.5 402.5 c 128,-1,11
 89 449 89 449 136 474.5 c 128,-1,12
 183 500 183 500 244 500 c 2,13,-1
 311 500 l 2,14,15
 341 500 341 500 370.5 484 c 0,16,17
 410 461 410 461 420 449 c 1,18,-1
 420 500 l 1,19,-1
 546 500 l 1,20,-1
 546 -200 l 1,21,-1
 410 -200 l 1,22,-1
 410 42 l 1,0,1
316 117 m 2,23,24
 354 117 354 117 380 148.5 c 128,-1,25
 406 180 406 180 410 231 c 1,26,-1
 410 295 l 1,27,28
 406 335 406 335 383 359 c 128,-1,29
 360 383 360 383 325 383 c 2,30,-1
 256 383 l 2,31,32
 219 383 219 383 196.5 356 c 128,-1,33
 174 329 174 329 174 285 c 2,34,-1
 174 208 l 2,35,36
 174 167 174 167 194.5 142 c 128,-1,37
 215 117 215 117 248 117 c 2,38,-1
 316 117 l 2,23,24
EndSplineSet
Validated: 1
EndChar

StartChar: r
Encoding: 84 114 46
Width: 383
GlyphClass: 2
Flags: W
AnchorPoint: "Anchor-6" 0 0 basechar 0
AnchorPoint: "Anchor-5" 216 500 basechar 0
AnchorPoint: "Anchor-4" 0 0 basechar 0
AnchorPoint: "Anchor-3" 126 0 basechar 0
LayerCount: 2
Fore
SplineSet
58 500 m 1,0,-1
 184 500 l 1,1,-1
 184 435 l 1,2,3
 202 462 202 462 238.5 481.5 c 0,4,5
 274 500 274 500 313 500 c 2,6,-1
 381 500 l 1,7,-1
 381 383 l 1,8,-1
 313 383 l 2,9,10
 260 383 260 383 227 351 c 128,-1,11
 194 319 194 319 194 269 c 2,12,-1
 194 0 l 1,13,-1
 58 0 l 1,14,-1
 58 500 l 1,0,-1
EndSplineSet
Validated: 1
EndChar

StartChar: s
Encoding: 85 115 47
Width: 549
GlyphClass: 2
Flags: W
AnchorPoint: "Anchor-6" 0 0 basechar 0
AnchorPoint: "Anchor-5" 275 493 basechar 0
AnchorPoint: "Anchor-4" 0 0 basechar 0
AnchorPoint: "Anchor-3" 290 8 basechar 0
LayerCount: 2
Fore
SplineSet
89 48 m 128,-1,1
 34 96 34 96 34 166 c 1,2,-1
 168 166 l 1,3,4
 168 147 168 147 186.5 130.5 c 128,-1,5
 205 114 205 114 235 114 c 2,6,-1
 325 114 l 2,7,8
 385 114 385 114 385 147 c 2,9,-1
 385 156 l 2,10,11
 385 166 385 166 375 174.5 c 128,-1,12
 364.923109782 183.065356685 364.923109782 183.065356685 348 186 c 2,13,-1
 175 216 l 2,14,15
 113 227 113 227 78.5 259.5 c 0,16,17
 43 293 43 293 43 338 c 2,18,-1
 43 364 l 2,19,20
 43 428 43 428 95.5 464 c 128,-1,21
 148 500 148 500 242 500 c 2,22,-1
 320 500 l 2,23,24
 404 500 404 500 455.5 455.5 c 128,-1,25
 507 411 507 411 507 345 c 1,26,-1
 373 345 l 1,27,28
 373 360 373 360 358.5 373 c 128,-1,29
 344 386 344 386 320 386 c 2,30,-1
 244 386 l 2,31,32
 179 386 179 386 179 356 c 2,33,-1
 179 347 l 2,34,35
 179 336 179 336 187.5 328.5 c 128,-1,36
 196.141078838 320.875518672 196.141078838 320.875518672 212 318 c 2,37,-1
 394 285 l 2,38,39
 451 275 451 275 486 242.5 c 128,-1,40
 521 210 521 210 521 169 c 2,41,-1
 521 141 l 2,42,43
 521 76 521 76 467.5 38 c 128,-1,44
 414 0 414 0 325 0 c 2,45,-1
 235 0 l 2,46,0
 144 0 144 0 89 48 c 128,-1,1
EndSplineSet
Validated: 1
EndChar

StartChar: t
Encoding: 86 116 48
Width: 410
GlyphClass: 2
Flags: W
AnchorPoint: "Anchor-6" 345 500 basechar 0
AnchorPoint: "Anchor-5" 188 650 basechar 0
AnchorPoint: "Anchor-4" 0 0 basechar 0
AnchorPoint: "Anchor-3" 240 0 basechar 0
LayerCount: 2
Fore
SplineSet
147 40 m 128,-1,1
 106 80 106 80 106 164 c 2,2,-1
 106 383 l 1,3,-1
 18 383 l 1,4,-1
 18 500 l 1,5,-1
 110 500 l 1,6,-1
 110 650 l 1,7,-1
 242 650 l 1,8,-1
 242 500 l 1,9,-1
 372 500 l 1,10,-1
 372 383 l 1,11,-1
 242 383 l 1,12,-1
 242 170 l 2,13,14
 242 142 242 142 252.5 129 c 128,-1,15
 263 116 263 116 286 116 c 2,16,-1
 372 116 l 1,17,-1
 372 0 l 1,18,-1
 276 0 l 2,19,0
 188 0 188 0 147 40 c 128,-1,1
EndSplineSet
Validated: 1
EndChar

StartChar: u
Encoding: 87 117 49
Width: 598
GlyphClass: 2
Flags: W
AnchorPoint: "Anchor-6" 553 306 basechar 0
AnchorPoint: "Anchor-5" 299 500 basechar 0
AnchorPoint: "Anchor-4" 540 0 basechar 0
AnchorPoint: "Anchor-3" 299 8 basechar 0
LayerCount: 2
Fore
SplineSet
100 53.5 m 128,-1,1
 52 107 52 107 52 194 c 2,2,-1
 52 500 l 1,3,-1
 188 500 l 1,4,-1
 188 192 l 2,5,6
 188 159 188 159 204.5 138.5 c 128,-1,7
 221 118 221 118 248 118 c 2,8,-1
 306 118 l 2,9,10
 339 118 339 118 366 145.5 c 128,-1,11
 393 173 393 173 404 218 c 1,12,-1
 404 500 l 1,13,-1
 540 500 l 1,14,-1
 540 0 l 1,15,-1
 414 0 l 1,16,-1
 414 64 l 1,17,18
 399 45 399 45 357.5 20 c 0,19,20
 324 0 324 0 293 0 c 2,21,-1
 227 0 l 2,22,0
 148 0 148 0 100 53.5 c 128,-1,1
EndSplineSet
Validated: 1
EndChar

StartChar: v
Encoding: 88 118 50
Width: 521
GlyphClass: 2
Flags: W
AnchorPoint: "Anchor-6" 0 0 basechar 0
AnchorPoint: "Anchor-5" 261 500 basechar 0
AnchorPoint: "Anchor-4" 0 0 basechar 0
AnchorPoint: "Anchor-3" 261 0 basechar 0
LayerCount: 2
Fore
SplineSet
-2 500 m 1,0,-1
 141 500 l 1,1,-1
 259 156 l 1,2,-1
 261 156 l 1,3,-1
 380 500 l 1,4,-1
 523 500 l 1,5,-1
 322 0 l 1,6,-1
 198 0 l 1,7,-1
 -2 500 l 1,0,-1
EndSplineSet
Validated: 1
EndChar

StartChar: w
Encoding: 89 119 51
Width: 749
GlyphClass: 2
Flags: W
AnchorPoint: "Anchor-6" 0 0 basechar 0
AnchorPoint: "Anchor-5" 394 500 basechar 0
AnchorPoint: "Anchor-4" 0 0 basechar 0
AnchorPoint: "Anchor-3" 377 0 basechar 0
LayerCount: 2
Fore
SplineSet
14 500 m 1,0,-1
 155 500 l 1,1,-1
 216 182 l 1,2,-1
 218 182 l 1,3,-1
 327 487 l 1,4,-1
 427 487 l 1,5,6
 532 182 l 1,7,-1
 534 182 l 1,8,-1
 594 500 l 1,9,-1
 735 500 l 1,10,-1
 618 0 l 1,11,-1
 488 0 l 1,12,-1
 377 316 l 1,13,-1
 262 0 l 1,14,-1
 134 0 l 1,15,-1
 14 500 l 1,0,-1
EndSplineSet
Validated: 1
EndChar

StartChar: x
Encoding: 90 120 52
Width: 532
GlyphClass: 2
Flags: W
AnchorPoint: "Anchor-6" 0 0 basechar 0
AnchorPoint: "Anchor-5" 266 500 basechar 0
AnchorPoint: "Anchor-4" 0 0 basechar 0
AnchorPoint: "Anchor-3" 266 0 basechar 0
LayerCount: 2
Fore
SplineSet
187 253 m 1,0,-1
 4 500 l 1,1,-1
 156 500 l 1,2,-1
 266 351 l 1,3,-1
 376 500 l 1,4,-1
 528 500 l 1,5,-1
 345 253 l 1,6,-1
 534 0 l 1,7,-1
 382 0 l 1,8,-1
 266 156 l 1,9,-1
 150 0 l 1,10,-1
 -2 0 l 1,11,-1
 187 253 l 1,0,-1
EndSplineSet
Validated: 1
EndChar

StartChar: y
Encoding: 91 121 53
Width: 598
GlyphClass: 2
Flags: W
AnchorPoint: "Anchor-6" 0 0 basechar 0
AnchorPoint: "Anchor-5" 299 500 basechar 0
AnchorPoint: "Anchor-4" 0 0 basechar 0
AnchorPoint: "Anchor-3" 305 -200 basechar 0
LayerCount: 2
Fore
SplineSet
118.5 -164.5 m 128,-1,1
 66 -129 66 -129 60 -58 c 5,2,-1
 194 -58 l 5,3,4
 196 -77 196 -77 212 -80.5 c 128,-1,5
 228 -84 228 -84 252 -84 c 2,6,-1
 334 -84 l 2,7,8
 365 -84 365 -84 384.5 -58.5 c 128,-1,9
 404 -33 404 -33 404 8 c 2,10,-1
 404 70 l 1,11,12
 379 34 379 34 351.5 17.5 c 0,13,14
 322 0 322 0 293 0 c 2,15,-1
 227 0 l 2,16,17
 148 0 148 0 100 52.5 c 128,-1,18
 52 105 52 105 52 192 c 2,19,-1
 52 500 l 1,20,-1
 188 500 l 1,21,-1
 188 190 l 2,22,23
 188 157 188 157 204.5 136.5 c 128,-1,24
 221 116 221 116 248 116 c 2,25,-1
 306 116 l 2,26,27
 339 116 339 116 366 143.5 c 128,-1,28
 393 171 393 171 404 216 c 1,29,-1
 404 500 l 1,30,-1
 540 500 l 1,31,-1
 540 8 l 2,32,33
 540 -54 540 -54 514.5 -101 c 128,-1,34
 489 -148 489 -148 442 -174 c 128,-1,35
 395 -200 395 -200 334 -200 c 2,36,-1
 252 -200 l 2,37,0
 171 -200 171 -200 118.5 -164.5 c 128,-1,1
EndSplineSet
Validated: 1
EndChar

StartChar: z
Encoding: 92 122 54
Width: 500
GlyphClass: 2
Flags: W
AnchorPoint: "Anchor-6" 0 0 basechar 0
AnchorPoint: "Anchor-5" 256 500 basechar 0
AnchorPoint: "Anchor-4" 0 0 basechar 0
AnchorPoint: "Anchor-3" 249 0 basechar 0
LayerCount: 2
Fore
SplineSet
18 68 m 1,0,-1
 288 384 l 1,1,-1
 30 384 l 1,2,-1
 30 500 l 1,3,-1
 482 500 l 1,4,-1
 482 431 l 1,5,-1
 212 115 l 1,6,-1
 477 115 l 1,7,-1
 477 0 l 1,8,-1
 18 0 l 1,9,-1
 18 68 l 1,0,-1
EndSplineSet
Validated: 1
EndChar

StartChar: zero
Encoding: 18 48 55
Width: 674
Flags: W
LayerCount: 2
Fore
SplineSet
162 22.5 m 128,-1,1
 108 53 108 53 78 109 c 128,-1,2
 48 165 48 165 48 238 c 2,3,-1
 48 462 l 2,4,5
 48 535 48 535 77.5 591 c 128,-1,6
 107 647 107 647 161 677.5 c 128,-1,7
 215 708 215 708 286 708 c 2,8,-1
 392 708 l 2,9,10
 461 708 461 708 514 677.5 c 128,-1,11
 567 647 567 647 596.5 591 c 128,-1,12
 626 535 626 535 626 462 c 2,13,-1
 626 238 l 2,14,15
 626 165 626 165 597 109 c 128,-1,16
 568 53 568 53 515 22.5 c 128,-1,17
 462 -8 462 -8 392 -8 c 2,18,-1
 286 -8 l 2,19,0
 216 -8 216 -8 162 22.5 c 128,-1,1
390 114 m 2,20,21
 434 114 434 114 460.5 147.5 c 128,-1,22
 487 181 487 181 487 236 c 2,23,-1
 487 464 l 2,24,25
 487 519 487 519 460.5 552.5 c 128,-1,26
 434 586 434 586 390 586 c 2,27,-1
 288 586 l 2,28,29
 242 586 242 586 214 552.5 c 128,-1,30
 186 519 186 519 186 464 c 2,31,-1
 186 236 l 2,32,33
 186 181 186 181 214 147.5 c 128,-1,34
 242 114 242 114 288 114 c 2,35,-1
 390 114 l 2,20,21
EndSplineSet
Validated: 513
Substitution2: "'sups' Superscript lookup 10 subtable" uni2070
Substitution2: "'subs' Subscript lookup 9 subtable" uni2080
AlternateSubs2: "'aalt' Access All Alternates lookup 1 subtable" uni2080 uni2070
EndChar

StartChar: one
Encoding: 19 49 56
Width: 385
Flags: W
LayerCount: 2
Fore
SplineSet
179 550 m 1,0,-1
 18 469 l 1,1,-1
 18 597 l 1,2,-1
 212 700 l 1,3,-1
 317 700 l 1,4,-1
 317 0 l 1,5,-1
 179 0 l 1,6,-1
 179 550 l 1,0,-1
EndSplineSet
Validated: 513
Substitution2: "'sups' Superscript lookup 10 subtable" uni00B9
Substitution2: "'subs' Subscript lookup 9 subtable" uni2081
AlternateSubs2: "'aalt' Access All Alternates lookup 1 subtable" uni2081 uni00B9
EndChar

StartChar: two
Encoding: 20 50 57
Width: 583
Flags: W
LayerCount: 2
Fore
SplineSet
33 100 m 2,0,1
 33 160 33 160 55 204 c 128,-1,2
 77 248 77 248 130 280 c 2,3,-1
 378 428 l 2,4,5
 396 438 396 438 406.5 456 c 128,-1,6
 417 474 417 474 417 492 c 2,7,-1
 417 524 l 2,8,9
 417 552 417 552 396.5 569 c 128,-1,10
 376 586 376 586 343 586 c 2,11,-1
 251 586 l 2,12,13
 212 586 212 586 190 557.5 c 128,-1,14
 168 529 168 529 168 477 c 1,15,-1
 30 477 l 1,16,17
 30 586 30 586 88 647 c 128,-1,18
 146 708 146 708 249 708 c 2,19,-1
 343 708 l 2,20,21
 406 708 406 708 454 685 c 128,-1,22
 502 662 502 662 528.5 620 c 128,-1,23
 555 578 555 578 555 524 c 2,24,-1
 555 492 l 2,25,26
 555 438 555 438 532.5 399.5 c 128,-1,27
 510 361 510 361 462 333 c 2,28,-1
 221 193 l 2,29,30
 197 179 197 179 184.5 162 c 128,-1,31
 172 145 172 145 172 120 c 1,32,-1
 559 120 l 1,33,-1
 559 0 l 1,34,-1
 33 0 l 1,35,-1
 33 100 l 2,0,1
EndSplineSet
Validated: 513
Substitution2: "'sups' Superscript lookup 10 subtable" uni00B2
Substitution2: "'subs' Subscript lookup 9 subtable" uni2082
AlternateSubs2: "'aalt' Access All Alternates lookup 1 subtable" uni2082 uni00B2
EndChar

StartChar: three
Encoding: 21 51 58
Width: 617
Flags: W
LayerCount: 2
Fore
SplineSet
562.5 302 m 128,-1,1
 585 267 585 267 585 229 c 2,2,-1
 585 189 l 2,3,4
 585 131 585 131 556 86 c 128,-1,5
 527 41 527 41 474.5 16.5 c 128,-1,6
 422 -8 422 -8 353 -8 c 2,7,-1
 256 -8 l 2,8,9
 149 -8 149 -8 88.5 53 c 128,-1,10
 28 114 28 114 28 223 c 1,11,-1
 164 223 l 1,12,13
 164 171 164 171 188 142.5 c 128,-1,14
 212 114 212 114 256 114 c 2,15,-1
 353 114 l 2,16,17
 395 114 395 114 421 134.5 c 128,-1,18
 447 155 447 155 447 189 c 2,19,-1
 447 229 l 2,20,21
 447 260 447 260 420 279 c 128,-1,22
 393 298 393 298 350 298 c 2,23,-1
 222 298 l 1,24,-1
 222 418 l 1,25,-1
 350 418 l 2,26,27
 388 418 388 418 411 436.5 c 128,-1,28
 434 455 434 455 434 485 c 2,29,-1
 434 525 l 2,30,31
 434 553 434 553 412 569.5 c 128,-1,32
 390 586 390 586 355 586 c 2,33,-1
 258 586 l 2,34,35
 217 586 217 586 194.5 557.5 c 128,-1,36
 172 529 172 529 172 477 c 1,37,-1
 33 477 l 1,38,39
 33 586 33 586 92.5 647 c 128,-1,40
 152 708 152 708 258 708 c 2,41,-1
 355 708 l 2,42,43
 419 708 419 708 468.5 685 c 128,-1,44
 518 662 518 662 545 620.5 c 128,-1,45
 572 579 572 579 572 525 c 2,46,-1
 572 485 l 2,47,48
 572 448 572 448 553 416 c 128,-1,49
 534 384 534 384 500 361 c 1,50,0
 540 337 540 337 562.5 302 c 128,-1,1
EndSplineSet
Validated: 513
Substitution2: "'sups' Superscript lookup 10 subtable" uni00B3
Substitution2: "'subs' Subscript lookup 9 subtable" uni2083
AlternateSubs2: "'aalt' Access All Alternates lookup 1 subtable" uni2083 uni00B3
EndChar

StartChar: four
Encoding: 22 52 59
Width: 621
Flags: W
LayerCount: 2
Fore
SplineSet
381 134 m 1,0,-1
 96 134 l 2,1,2
 54 134 54 134 31 152 c 128,-1,3
 8 170 8 170 8 204 c 2,4,-1
 8 232 l 1,5,-1
 380 700 l 1,6,-1
 519 700 l 1,7,-1
 519 256 l 1,8,-1
 607 256 l 1,9,-1
 607 134 l 1,10,-1
 519 134 l 1,11,-1
 519 0 l 1,12,-1
 381 0 l 1,13,-1
 381 134 l 1,0,-1
385 250 m 1,14,-1
 385 527 l 1,15,-1
 384 527 l 1,16,-1
 165 250 l 1,17,-1
 385 250 l 1,14,-1
EndSplineSet
Validated: 513
Substitution2: "'sups' Superscript lookup 10 subtable" uni2074
Substitution2: "'subs' Subscript lookup 9 subtable" uni2084
AlternateSubs2: "'aalt' Access All Alternates lookup 1 subtable" uni2084 uni2074
EndChar

StartChar: five
Encoding: 23 53 60
Width: 625
Flags: W
LayerCount: 2
Fore
SplineSet
96 51 m 128,-1,1
 38 110 38 110 38 215 c 1,2,-1
 174 215 l 1,3,4
 174 168 174 168 196 141 c 128,-1,5
 218 114 218 114 258 114 c 2,6,-1
 354 114 l 2,7,8
 398 114 398 114 424.5 138 c 128,-1,9
 451 162 451 162 451 202 c 2,10,-1
 451 256 l 2,11,12
 451 291 451 291 423.5 313 c 128,-1,13
 396 335 396 335 351 335 c 2,14,-1
 62 335 l 1,15,-1
 62 700 l 1,16,-1
 563 700 l 1,17,-1
 563 578 l 1,18,-1
 200 578 l 1,19,-1
 200 457 l 1,20,-1
 351 457 l 2,21,22
 422 457 422 457 476 432 c 128,-1,23
 530 407 530 407 559.5 361.5 c 128,-1,24
 589 316 589 316 589 256 c 2,25,-1
 589 202 l 2,26,27
 589 140 589 140 559.5 92 c 128,-1,28
 530 44 530 44 477 18 c 128,-1,29
 424 -8 424 -8 354 -8 c 2,30,-1
 258 -8 l 2,31,0
 154 -8 154 -8 96 51 c 128,-1,1
EndSplineSet
Validated: 513
Substitution2: "'sups' Superscript lookup 10 subtable" uni2075
Substitution2: "'subs' Subscript lookup 9 subtable" uni2085
AlternateSubs2: "'aalt' Access All Alternates lookup 1 subtable" uni2085 uni2075
EndChar

StartChar: six
Encoding: 24 54 61
Width: 634
Flags: W
LayerCount: 2
Fore
SplineSet
164.5 21.5 m 128,-1,1
 109 51 109 51 78.5 105 c 128,-1,2
 48 159 48 159 48 229 c 2,3,-1
 48 475 l 2,4,5
 48 544 48 544 78 597 c 128,-1,6
 108 650 108 650 163 679 c 128,-1,7
 218 708 218 708 290 708 c 2,8,-1
 376 708 l 2,9,10
 439 708 439 708 487.5 682.5 c 128,-1,11
 536 657 536 657 563 610.5 c 128,-1,12
 590 564 590 564 590 503 c 1,13,-1
 454 503 l 1,14,15
 454 540 454 540 432.5 563 c 128,-1,16
 411 586 411 586 376 586 c 2,17,-1
 290 586 l 2,18,19
 243 586 243 586 214.5 555.5 c 128,-1,20
 186 525 186 525 186 475 c 2,21,-1
 186 397 l 1,22,23
 212 422 212 422 248.5 437 c 128,-1,24
 285 452 285 452 319 452 c 2,25,-1
 385 452 l 2,26,27
 452 452 452 452 503 427 c 128,-1,28
 554 402 554 402 582 356 c 128,-1,29
 610 310 610 310 610 250 c 2,30,-1
 610 209 l 2,31,32
 610 144 610 144 579.5 95 c 128,-1,33
 549 46 549 46 493.5 19 c 128,-1,34
 438 -8 438 -8 366 -8 c 2,35,-1
 293 -8 l 2,36,0
 220 -8 220 -8 164.5 21.5 c 128,-1,1
366 108 m 2,37,38
 414 108 414 108 443 135.5 c 128,-1,39
 472 163 472 163 472 209 c 2,40,-1
 472 250 l 2,41,42
 472 289 472 289 447.5 312.5 c 128,-1,43
 423 336 423 336 383 336 c 2,44,-1
 317 336 l 2,45,46
 269 336 269 336 233.5 308.5 c 128,-1,47
 198 281 198 281 188 236 c 1,48,-1
 188 202 l 2,49,50
 188 160 188 160 217.5 134 c 128,-1,51
 247 108 247 108 295 108 c 2,52,-1
 366 108 l 2,37,38
EndSplineSet
Validated: 513
Substitution2: "'sups' Superscript lookup 10 subtable" uni2076
Substitution2: "'subs' Subscript lookup 9 subtable" uni2086
AlternateSubs2: "'aalt' Access All Alternates lookup 1 subtable" uni2086 uni2076
EndChar

StartChar: seven
Encoding: 25 55 62
Width: 520
Flags: W
LayerCount: 2
Fore
SplineSet
139 48 m 2,0,1
 139 95 139 95 150.5 145.5 c 128,-1,2
 162 196 162 196 183 238 c 2,3,-1
 357 578 l 1,4,-1
 2 578 l 1,5,-1
 2 700 l 1,6,-1
 518 700 l 1,7,-1
 518 621 l 1,8,-1
 319 216 l 2,9,10
 299 175 299 175 288 130 c 128,-1,11
 277 85 277 85 277 48 c 2,12,-1
 277 0 l 1,13,-1
 139 0 l 1,14,-1
 139 48 l 2,0,1
EndSplineSet
Validated: 513
Substitution2: "'sups' Superscript lookup 10 subtable" uni2077
Substitution2: "'subs' Subscript lookup 9 subtable" uni2087
AlternateSubs2: "'aalt' Access All Alternates lookup 1 subtable" uni2087 uni2077
EndChar

StartChar: eight
Encoding: 26 56 63
Width: 648
Flags: W
LayerCount: 2
Fore
SplineSet
144 15.5 m 128,-1,1
 89 39 89 39 58.5 81.5 c 128,-1,2
 28 124 28 124 28 179 c 2,3,-1
 28 226 l 2,4,5
 28 264 28 264 57 301 c 128,-1,6
 86 338 86 338 133 360 c 1,7,-1
 133 361 l 1,8,9
 96 383 96 383 73.5 417 c 128,-1,10
 51 451 51 451 51 485 c 2,11,-1
 51 529 l 2,12,13
 51 582 51 582 79.5 622.5 c 128,-1,14
 108 663 108 663 160.5 685.5 c 128,-1,15
 213 708 213 708 281 708 c 2,16,-1
 367 708 l 2,17,18
 435 708 435 708 487.5 685.5 c 128,-1,19
 540 663 540 663 568.5 622.5 c 128,-1,20
 597 582 597 582 597 529 c 2,21,-1
 597 485 l 2,22,23
 597 452 597 452 574.5 417.5 c 128,-1,24
 552 383 552 383 515 361 c 1,25,-1
 515 360 l 1,26,27
 562 338 562 338 591 301 c 128,-1,28
 620 264 620 264 620 226 c 2,29,-1
 620 179 l 2,30,31
 620 124 620 124 589.5 81.5 c 128,-1,32
 559 39 559 39 504 15.5 c 128,-1,33
 449 -8 449 -8 377 -8 c 2,34,-1
 271 -8 l 2,35,0
 199 -8 199 -8 144 15.5 c 128,-1,1
367 416 m 2,36,37
 408 416 408 416 433.5 435 c 128,-1,38
 459 454 459 454 459 485 c 2,39,-1
 459 527 l 2,40,41
 459 555 459 555 433.5 572 c 128,-1,42
 408 589 408 589 367 589 c 2,43,-1
 281 589 l 2,44,45
 240 589 240 589 214.5 572 c 128,-1,46
 189 555 189 555 189 527 c 2,47,-1
 189 485 l 2,48,49
 189 454 189 454 214.5 435 c 128,-1,50
 240 416 240 416 281 416 c 2,51,-1
 367 416 l 2,36,37
377 111 m 2,52,53
 424 111 424 111 453 131.5 c 128,-1,54
 482 152 482 152 482 186 c 2,55,-1
 482 223 l 2,56,57
 482 258 482 258 450.5 279 c 128,-1,58
 419 300 419 300 367 300 c 2,59,-1
 281 300 l 2,60,61
 229 300 229 300 197.5 279 c 128,-1,62
 166 258 166 258 166 223 c 2,63,-1
 166 186 l 2,64,65
 166 152 166 152 195 131.5 c 128,-1,66
 224 111 224 111 271 111 c 2,67,-1
 377 111 l 2,52,53
EndSplineSet
Validated: 513
Substitution2: "'sups' Superscript lookup 10 subtable" uni2078
Substitution2: "'subs' Subscript lookup 9 subtable" uni2088
AlternateSubs2: "'aalt' Access All Alternates lookup 1 subtable" uni2088 uni2078
EndChar

StartChar: nine
Encoding: 27 57 64
Width: 638
Flags: W
LayerCount: 2
Fore
SplineSet
155 17 m 128,-1,1
 105 42 105 42 77.5 87.5 c 128,-1,2
 50 133 50 133 50 192 c 1,3,-1
 187 192 l 1,4,5
 187 157 187 157 210 135.5 c 128,-1,6
 233 114 233 114 271 114 c 2,7,-1
 357 114 l 2,8,9
 400 114 400 114 426 140.5 c 128,-1,10
 452 167 452 167 452 211 c 2,11,-1
 452 292 l 1,12,13
 427 270 427 270 392 256 c 128,-1,14
 357 242 357 242 325 242 c 2,15,-1
 258 242 l 2,16,17
 190 242 190 242 138.5 268.5 c 128,-1,18
 87 295 87 295 58.5 343 c 128,-1,19
 30 391 30 391 30 454 c 2,20,-1
 30 494 l 2,21,22
 30 557 30 557 61 605.5 c 128,-1,23
 92 654 92 654 149 681 c 128,-1,24
 206 708 206 708 280 708 c 2,25,-1
 350 708 l 2,26,27
 421 708 421 708 475.5 681 c 128,-1,28
 530 654 530 654 560 605 c 128,-1,29
 590 556 590 556 590 492 c 2,30,-1
 590 211 l 2,31,32
 590 146 590 146 561 96.5 c 128,-1,33
 532 47 532 47 479 19.5 c 128,-1,34
 426 -8 426 -8 357 -8 c 2,35,-1
 271 -8 l 2,36,0
 205 -8 205 -8 155 17 c 128,-1,1
327 358 m 2,37,38
 372 358 372 358 406.5 384 c 128,-1,39
 441 410 441 410 452 452 c 1,40,-1
 452 500 l 2,41,42
 452 541 452 541 424 566.5 c 128,-1,43
 396 592 396 592 350 592 c 2,44,-1
 280 592 l 2,45,46
 230 592 230 592 199 565 c 128,-1,47
 168 538 168 538 168 494 c 2,48,-1
 168 454 l 2,49,50
 168 411 168 411 192.5 384.5 c 128,-1,51
 217 358 217 358 257 358 c 2,52,-1
 327 358 l 2,37,38
EndSplineSet
Validated: 513
Substitution2: "'sups' Superscript lookup 10 subtable" uni2079
Substitution2: "'subs' Subscript lookup 9 subtable" uni2089
AlternateSubs2: "'aalt' Access All Alternates lookup 1 subtable" uni2089 uni2079
EndChar

StartChar: period
Encoding: 16 46 65
Width: 240
Flags: W
LayerCount: 2
Fore
SplineSet
60.5 12.5 m 128,-1,1
 38 35 38 35 38 72 c 256,2,3
 38 109 38 109 60.5 131.5 c 128,-1,4
 83 154 83 154 120 154 c 256,5,6
 157 154 157 154 179.5 131.5 c 128,-1,7
 202 109 202 109 202 72 c 256,8,9
 202 35 202 35 179.5 12.5 c 128,-1,10
 157 -10 157 -10 120 -10 c 256,11,0
 83 -10 83 -10 60.5 12.5 c 128,-1,1
EndSplineSet
Validated: 1
EndChar

StartChar: comma
Encoding: 14 44 66
Width: 252
Flags: W
LayerCount: 2
Fore
SplineSet
-6 -88 m 1,0,-1
 24 -61 l 2,1,2
 76 -14 76 -14 76 53 c 2,3,-1
 76 119 l 1,4,-1
 212 119 l 1,5,-1
 212 53 l 2,6,7
 212 -14 212 -14 187.5 -68 c 128,-1,8
 163 -122 163 -122 116 -159 c 2,9,-1
 82 -186 l 1,10,-1
 -6 -88 l 1,0,-1
EndSplineSet
Validated: 1
EndChar

StartChar: colon
Encoding: 28 58 67
Width: 240
Flags: W
LayerCount: 2
Fore
SplineSet
60.5 357.5 m 128,-1,1
 38 380 38 380 38 417 c 256,2,3
 38 454 38 454 60.5 476.5 c 0,4,5
 83 500 83 500 120 500 c 256,6,7
 157 500 157 500 179.5 476.5 c 0,8,9
 202 454 202 454 202 417 c 256,10,11
 202 380 202 380 179.5 357.5 c 128,-1,12
 157 335 157 335 120 335 c 256,13,0
 83 335 83 335 60.5 357.5 c 128,-1,1
60.5 30.5 m 128,-1,15
 38 53 38 53 38 90 c 256,16,17
 38 127 38 127 60.5 149.5 c 128,-1,18
 83 172 83 172 120 172 c 256,19,20
 157 172 157 172 179.5 149.5 c 128,-1,21
 202 127 202 127 202 90 c 256,22,23
 202 53 202 53 179.5 30.5 c 128,-1,24
 157 8 157 8 120 8 c 256,25,14
 83 8 83 8 60.5 30.5 c 128,-1,15
EndSplineSet
Validated: 1
EndChar

StartChar: semicolon
Encoding: 29 59 68
Width: 259
Flags: W
LayerCount: 2
Fore
SplineSet
79.5 357.5 m 128,-1,1
 57 380 57 380 57 417 c 256,2,3
 57 454 57 454 79.5 476.5 c 0,4,5
 102 500 102 500 139 500 c 256,6,7
 176 500 176 500 198.5 476.5 c 0,8,9
 221 454 221 454 221 417 c 256,10,11
 221 380 221 380 198.5 357.5 c 128,-1,12
 176 335 176 335 139 335 c 256,13,0
 102 335 102 335 79.5 357.5 c 128,-1,1
-6 -88 m 1,14,-1
 24 -61 l 2,15,16
 76 -14 76 -14 76 53 c 2,17,-1
 76 119 l 1,18,-1
 212 119 l 1,19,-1
 212 53 l 2,20,21
 212 -14 212 -14 187.5 -68 c 128,-1,22
 163 -122 163 -122 116 -159 c 2,23,-1
 82 -186 l 1,24,-1
 -6 -88 l 1,14,-1
EndSplineSet
Validated: 1
EndChar

StartChar: exclam
Encoding: 3 33 69
Width: 292
Flags: W
LayerCount: 2
Fore
SplineSet
77 700 m 1,0,-1
 215 700 l 1,1,-1
 215 205 l 1,2,-1
 77 205 l 1,3,-1
 77 700 l 1,0,-1
86.5 12.5 m 128,-1,5
 64 35 64 35 64 72 c 256,6,7
 64 109 64 109 86.5 131.5 c 128,-1,8
 109 154 109 154 146 154 c 256,9,10
 183 154 183 154 205.5 131.5 c 128,-1,11
 228 109 228 109 228 72 c 256,12,13
 228 35 228 35 205.5 12.5 c 128,-1,14
 183 -10 183 -10 146 -10 c 256,15,4
 109 -10 109 -10 86.5 12.5 c 128,-1,5
EndSplineSet
Validated: 1
EndChar

StartChar: question
Encoding: 33 63 70
Width: 591
Flags: W
LayerCount: 2
Fore
SplineSet
221 226 m 2,0,1
 221 270 221 270 237.5 300.5 c 128,-1,2
 254 331 254 331 277 350 c 128,-1,3
 300 369 300 369 336 391 c 0,4,5
 377 416 377 416 396 435.5 c 128,-1,6
 415 455 415 455 415 484 c 2,7,-1
 415 520 l 2,8,9
 415 551 415 551 393 569.5 c 128,-1,10
 371 588 371 588 334 588 c 2,11,-1
 248 588 l 2,12,13
 208 588 208 588 184 561.5 c 128,-1,14
 160 535 160 535 160 491 c 1,15,-1
 22 491 l 1,16,17
 22 555 22 555 50 604.5 c 128,-1,18
 78 654 78 654 129.5 681 c 128,-1,19
 181 708 181 708 248 708 c 2,20,-1
 334 708 l 2,21,22
 399 708 399 708 448.5 684.5 c 128,-1,23
 498 661 498 661 525.5 618.5 c 128,-1,24
 553 576 553 576 553 520 c 2,25,-1
 553 484 l 2,26,27
 553 439 553 439 537.5 409 c 128,-1,28
 522 379 522 379 500.5 362 c 128,-1,29
 479 345 479 345 443 323 c 0,30,31
 401 299 401 299 380 277.5 c 128,-1,32
 359 256 359 256 359 218 c 2,33,-1
 359 204 l 1,34,-1
 221 204 l 1,35,-1
 221 226 l 2,0,1
230.5 12.5 m 128,-1,37
 208 35 208 35 208 72 c 256,38,39
 208 109 208 109 230.5 131.5 c 128,-1,40
 253 154 253 154 290 154 c 256,41,42
 327 154 327 154 349.5 131.5 c 128,-1,43
 372 109 372 109 372 72 c 256,44,45
 372 35 372 35 349.5 12.5 c 128,-1,46
 327 -10 327 -10 290 -10 c 256,47,36
 253 -10 253 -10 230.5 12.5 c 128,-1,37
EndSplineSet
Validated: 1
EndChar

StartChar: asterisk
Encoding: 12 42 71
Width: 452
Flags: W
LayerCount: 2
Fore
SplineSet
174 496 m 1,0,-1
 83 435 l 1,1,-1
 38 519 l 1,2,-1
 142 573 l 1,3,-1
 38 626 l 1,4,-1
 83 710 l 1,5,-1
 174 650 l 1,6,-1
 174 750 l 1,7,-1
 278 750 l 1,8,-1
 278 650 l 1,9,-1
 369 710 l 1,10,-1
 414 626 l 1,11,-1
 310 573 l 1,12,-1
 414 519 l 1,13,-1
 369 435 l 1,14,-1
 278 496 l 1,15,-1
 278 395 l 1,16,-1
 174 395 l 1,17,-1
 174 496 l 1,0,-1
EndSplineSet
Validated: 1
EndChar

StartChar: numbersign
Encoding: 5 35 72
Width: 709
Flags: W
LayerCount: 2
Fore
SplineSet
150 157 m 1,0,-1
 38 157 l 1,1,-1
 38 267 l 1,2,-1
 150 267 l 1,3,-1
 150 430 l 1,4,-1
 38 430 l 1,5,-1
 38 540 l 1,6,-1
 150 540 l 1,7,-1
 150 700 l 1,8,-1
 278 700 l 1,9,-1
 278 540 l 1,10,-1
 431 540 l 1,11,-1
 431 700 l 1,12,-1
 559 700 l 1,13,-1
 559 540 l 1,14,-1
 671 540 l 1,15,-1
 671 430 l 1,16,-1
 559 430 l 1,17,-1
 559 267 l 1,18,-1
 671 267 l 1,19,-1
 671 157 l 1,20,-1
 559 157 l 1,21,-1
 559 0 l 1,22,-1
 431 0 l 1,23,-1
 431 157 l 1,24,-1
 278 157 l 1,25,-1
 278 0 l 1,26,-1
 150 0 l 1,27,-1
 150 157 l 1,0,-1
431 265 m 1,28,-1
 431 432 l 1,29,-1
 278 432 l 1,30,-1
 278 265 l 1,31,-1
 431 265 l 1,28,-1
EndSplineSet
Validated: 1
EndChar

StartChar: slash
Encoding: 17 47 73
Width: 550
Flags: W
LayerCount: 2
Fore
SplineSet
394 722 m 1,0,-1
 532 722 l 1,1,-1
 156 -25 l 1,2,-1
 18 -25 l 1,3,-1
 394 722 l 1,0,-1
EndSplineSet
Validated: 1
EndChar

StartChar: backslash
Encoding: 62 92 74
Width: 550
Flags: W
LayerCount: 2
Fore
SplineSet
18 722 m 1,0,-1
 156 722 l 1,1,-1
 532 -25 l 1,2,-1
 394 -25 l 1,3,-1
 18 722 l 1,0,-1
EndSplineSet
Validated: 1
EndChar

StartChar: parenleft
Encoding: 10 40 75
Width: 342
Flags: W
LayerCount: 2
Fore
SplineSet
73 9.5 m 128,-1,1
 38 117 38 117 38 239 c 2,2,-1
 38 259 l 2,3,4
 38 386 38 386 73 493 c 128,-1,5
 108 600 108 600 182 700 c 1,6,-1
 324 700 l 1,7,8
 247 597 247 597 210.5 489.5 c 128,-1,9
 174 382 174 382 174 259 c 2,10,-1
 174 239 l 2,11,12
 174 126 174 126 210.5 18.5 c 128,-1,13
 247 -89 247 -89 324 -202 c 1,14,-1
 182 -202 l 1,15,0
 108 -98 108 -98 73 9.5 c 128,-1,1
EndSplineSet
Validated: 513
Substitution2: "'sups' Superscript lookup 10 subtable" uni207D
Substitution2: "'subs' Subscript lookup 9 subtable" uni208D
AlternateSubs2: "'aalt' Access All Alternates lookup 1 subtable" uni208D uni207D
EndChar

StartChar: parenright
Encoding: 11 41 76
Width: 342
Flags: W
LayerCount: 2
Fore
SplineSet
131.5 18.5 m 128,-1,1
 168 126 168 126 168 239 c 2,2,-1
 168 259 l 2,3,4
 168 382 168 382 131.5 489.5 c 128,-1,5
 95 597 95 597 18 700 c 1,6,-1
 160 700 l 1,7,8
 234 600 234 600 269 493 c 128,-1,9
 304 386 304 386 304 259 c 2,10,-1
 304 239 l 2,11,12
 304 117 304 117 269 9.5 c 128,-1,13
 234 -98 234 -98 160 -202 c 1,14,-1
 18 -202 l 1,15,0
 95 -89 95 -89 131.5 18.5 c 128,-1,1
EndSplineSet
Validated: 513
Substitution2: "'sups' Superscript lookup 10 subtable" uni207E
Substitution2: "'subs' Subscript lookup 9 subtable" uni208E
AlternateSubs2: "'aalt' Access All Alternates lookup 1 subtable" uni208E uni207E
EndChar

StartChar: braceleft
Encoding: 93 123 77
Width: 398
Flags: W
LayerCount: 2
Fore
SplineSet
171.5 -181.5 m 128,-1,1
 121 -132 121 -132 121 -44 c 2,2,-1
 121 121 l 2,3,4
 121 158 121 158 99 179 c 128,-1,5
 77 200 77 200 38 200 c 1,6,-1
 38 304 l 1,7,8
 77 304 77 304 99 325 c 128,-1,9
 121 346 121 346 121 383 c 2,10,-1
 121 548 l 2,11,12
 121 636 121 636 171.5 685.5 c 128,-1,13
 222 735 222 735 312 735 c 2,14,-1
 380 735 l 1,15,-1
 380 617 l 1,16,-1
 319 617 l 2,17,18
 290 617 290 617 273.5 597.5 c 128,-1,19
 257 578 257 578 257 544 c 2,20,-1
 257 383 l 2,21,22
 257 344 257 344 239.5 310 c 128,-1,23
 222 276 222 276 189 252 c 1,24,25
 222 228 222 228 239.5 194 c 128,-1,26
 257 160 257 160 257 121 c 2,27,-1
 257 -40 l 2,28,29
 257 -74 257 -74 273.5 -93.5 c 128,-1,30
 290 -113 290 -113 319 -113 c 2,31,-1
 380 -113 l 1,32,-1
 380 -231 l 1,33,-1
 312 -231 l 2,34,0
 222 -231 222 -231 171.5 -181.5 c 128,-1,1
EndSplineSet
Validated: 1
EndChar

StartChar: braceright
Encoding: 95 125 78
Width: 398
Flags: W
LayerCount: 2
Fore
SplineSet
18 -113 m 1,0,-1
 79 -113 l 2,1,2
 108 -113 108 -113 124.5 -93.5 c 128,-1,3
 141 -74 141 -74 141 -40 c 2,4,-1
 141 121 l 2,5,6
 141 160 141 160 158.5 194 c 128,-1,7
 176 228 176 228 209 252 c 1,8,9
 176 276 176 276 158.5 310 c 128,-1,10
 141 344 141 344 141 383 c 2,11,-1
 141 544 l 2,12,13
 141 578 141 578 124.5 597.5 c 128,-1,14
 108 617 108 617 79 617 c 2,15,-1
 18 617 l 1,16,-1
 18 735 l 1,17,-1
 86 735 l 2,18,19
 176 735 176 735 226.5 685.5 c 128,-1,20
 277 636 277 636 277 548 c 2,21,-1
 277 383 l 2,22,23
 277 346 277 346 299 325 c 128,-1,24
 321 304 321 304 360 304 c 1,25,-1
 360 200 l 1,26,27
 321 200 321 200 299 179 c 128,-1,28
 277 158 277 158 277 121 c 2,29,-1
 277 -44 l 2,30,31
 277 -132 277 -132 226.5 -181.5 c 128,-1,32
 176 -231 176 -231 86 -231 c 2,33,-1
 18 -231 l 1,34,-1
 18 -113 l 1,0,-1
EndSplineSet
Validated: 1
EndChar

StartChar: bracketleft
Encoding: 61 91 79
Width: 347
Flags: W
LayerCount: 2
Fore
SplineSet
116 -156.5 m 128,-1,1
 62 -106 62 -106 62 -16 c 2,2,-1
 62 544 l 2,3,4
 62 634 62 634 116 684.5 c 128,-1,5
 170 735 170 735 267 735 c 2,6,-1
 323 735 l 1,7,-1
 323 617 l 1,8,-1
 267 617 l 2,9,10
 235 617 235 617 216.5 598 c 128,-1,11
 198 579 198 579 198 545 c 2,12,-1
 198 -17 l 2,13,14
 198 -51 198 -51 216.5 -69.5 c 128,-1,15
 235 -88 235 -88 267 -88 c 2,16,-1
 323 -88 l 1,17,-1
 323 -207 l 1,18,-1
 267 -207 l 2,19,0
 170 -207 170 -207 116 -156.5 c 128,-1,1
EndSplineSet
Validated: 1
EndChar

StartChar: bracketright
Encoding: 63 93 80
Width: 347
Flags: W
LayerCount: 2
Fore
SplineSet
24 -88 m 1,0,-1
 80 -88 l 2,1,2
 112 -88 112 -88 130.5 -69.5 c 128,-1,3
 149 -51 149 -51 149 -17 c 2,4,-1
 149 545 l 2,5,6
 149 579 149 579 130.5 598 c 128,-1,7
 112 617 112 617 80 617 c 2,8,-1
 24 617 l 1,9,-1
 24 735 l 1,10,-1
 80 735 l 2,11,12
 177 735 177 735 231 684.5 c 128,-1,13
 285 634 285 634 285 544 c 2,14,-1
 285 -16 l 2,15,16
 285 -106 285 -106 231 -156.5 c 128,-1,17
 177 -207 177 -207 80 -207 c 2,18,-1
 24 -207 l 1,19,-1
 24 -88 l 1,0,-1
EndSplineSet
Validated: 1
EndChar

StartChar: hyphen
Encoding: 15 45 81
Width: 405
Flags: W
LayerCount: 2
Fore
SplineSet
38 316 m 1,0,-1
 367 316 l 1,1,-1
 367 198 l 1,2,-1
 38 198 l 1,3,-1
 38 316 l 1,0,-1
EndSplineSet
Validated: 1
EndChar

StartChar: underscore
Encoding: 65 95 82
Width: 594
Flags: W
LayerCount: 2
Fore
SplineSet
0 -10 m 1,0,-1
 594 -10 l 1,1,-1
 594 -128 l 1,2,-1
 0 -128 l 1,3,-1
 0 -10 l 1,0,-1
EndSplineSet
Validated: 1
EndChar

StartChar: quotedbl
Encoding: 4 34 83
Width: 406
Flags: W
LayerCount: 2
Fore
SplineSet
38 700 m 1,0,-1
 174 700 l 1,1,-1
 174 457 l 1,2,-1
 38 457 l 1,3,-1
 38 700 l 1,0,-1
232 700 m 1,4,-1
 368 700 l 1,5,-1
 368 457 l 1,6,-1
 232 457 l 1,7,-1
 232 700 l 1,4,-1
EndSplineSet
Validated: 1
EndChar

StartChar: quotesingle
Encoding: 9 39 84
Width: 212
Flags: W
LayerCount: 2
Fore
SplineSet
38 700 m 1,0,-1
 174 700 l 1,1,-1
 174 457 l 1,2,-1
 38 457 l 1,3,-1
 38 700 l 1,0,-1
EndSplineSet
Validated: 1
EndChar

StartChar: dollar
Encoding: 6 36 85
Width: 656
GlyphClass: 2
Flags: W
AnchorPoint: "Anchor-2" 0 0 basechar 0
AnchorPoint: "Anchor-1" 328 700 basechar 0
AnchorPoint: "Anchor-0" 341 0 basechar 0
LayerCount: 2
Fore
SplineSet
574 342.5 m 128,-1,1
 622 302 622 302 622 238 c 2,2,-1
 622 172 l 2,3,4
 622 94 622 94 562 45 c 128,-1,5
 502 -4 502 -4 402 -8 c 1,6,-1
 402 -102 l 1,7,-1
 266 -102 l 1,8,-1
 266 -8 l 1,9,10
 159 -7 159 -7 98.5 55 c 128,-1,11
 38 117 38 117 38 225 c 1,12,-1
 174 225 l 1,13,14
 174 173 174 173 200.5 143.5 c 128,-1,15
 227 114 227 114 274 114 c 2,16,-1
 385 114 l 2,17,18
 429 114 429 114 456.5 132.5 c 128,-1,19
 484 151 484 151 484 182 c 2,20,-1
 484 216 l 2,21,22
 484 265 484 265 412 277 c 2,23,-1
 228 308 l 2,24,25
 138 323 138 323 91.5 365.5 c 128,-1,26
 45 408 45 408 45 474 c 2,27,-1
 45 530 l 2,28,29
 45 581 45 581 72.5 621 c 128,-1,30
 100 661 100 661 150 684 c 128,-1,31
 200 707 200 707 266 708 c 1,32,-1
 266 802 l 1,33,-1
 402 802 l 1,34,-1
 402 708 l 1,35,36
 496 703 496 703 552.5 645 c 128,-1,37
 609 587 609 587 609 493 c 1,38,-1
 473 493 l 1,39,40
 473 535 473 535 450 560.5 c 128,-1,41
 427 586 427 586 389 586 c 2,42,-1
 276 586 l 2,43,44
 234 586 234 586 208.5 568 c 128,-1,45
 183 550 183 550 183 520 c 2,46,-1
 183 493 l 2,47,48
 183 443 183 443 252 431 c 2,49,-1
 435 399 l 2,50,0
 526 383 526 383 574 342.5 c 128,-1,1
EndSplineSet
Validated: 1
EndChar

StartChar: plus
Encoding: 13 43 86
Width: 576
Flags: W
LayerCount: 2
Fore
SplineSet
220 265 m 1,0,-1
 38 265 l 1,1,-1
 38 383 l 1,2,-1
 220 383 l 1,3,-1
 220 565 l 1,4,-1
 356 565 l 1,5,-1
 356 383 l 1,6,-1
 538 383 l 1,7,-1
 538 265 l 1,8,-1
 356 265 l 1,9,-1
 356 83 l 1,10,-1
 220 83 l 1,11,-1
 220 265 l 1,0,-1
EndSplineSet
Validated: 1
EndChar

StartChar: equal
Encoding: 31 61 87
Width: 533
Flags: W
LayerCount: 2
Fore
SplineSet
38 459 m 1,0,-1
 495 459 l 1,1,-1
 495 343 l 1,2,-1
 38 343 l 1,3,-1
 38 459 l 1,0,-1
38 275 m 1,4,-1
 495 275 l 1,5,-1
 495 159 l 1,6,-1
 38 159 l 1,7,-1
 38 275 l 1,4,-1
EndSplineSet
Validated: 1
EndChar

StartChar: greater
Encoding: 32 62 88
Width: 568
Flags: W
LayerCount: 2
Fore
SplineSet
38 144 m 1,0,-1
 388 316 l 1,1,-1
 38 488 l 1,2,-1
 38 622 l 1,3,-1
 550 359 l 1,4,-1
 550 273 l 1,5,-1
 38 10 l 1,6,-1
 38 144 l 1,0,-1
EndSplineSet
Validated: 1
EndChar

StartChar: less
Encoding: 30 60 89
Width: 568
Flags: W
LayerCount: 2
Fore
SplineSet
18 273 m 1,0,-1
 18 359 l 1,1,-1
 530 622 l 1,2,-1
 530 488 l 1,3,-1
 180 316 l 1,4,-1
 530 144 l 1,5,-1
 530 10 l 1,6,-1
 18 273 l 1,0,-1
EndSplineSet
Validated: 1
EndChar

StartChar: asciitilde
Encoding: 96 126 90
Width: 627
Flags: W
LayerCount: 2
Fore
SplineSet
330 230 m 128,-1,1
 299 249 299 249 264 283 c 0,2,3
 246 300 246 300 237 307 c 128,-1,4
 228 314 228 314 219 314 c 2,5,-1
 207 314 l 2,6,7
 186 314 186 314 174 290.5 c 128,-1,8
 162 267 162 267 160 225 c 1,9,-1
 38 225 l 1,10,11
 39 322 39 322 84 377 c 128,-1,12
 129 432 129 432 207 432 c 2,13,-1
 219 432 l 2,14,15
 263 432 263 432 291 414.5 c 128,-1,16
 319 397 319 397 348 366 c 0,17,18
 368 346 368 346 379.5 337.5 c 128,-1,19
 391 329 391 329 406 329 c 2,20,-1
 418 329 l 2,21,22
 440 329 440 329 452.5 353 c 128,-1,23
 465 377 465 377 467 420 c 1,24,-1
 589 420 l 1,25,26
 587 322 587 322 542 266.5 c 128,-1,27
 497 211 497 211 418 211 c 2,28,-1
 406 211 l 2,29,0
 361 211 361 211 330 230 c 128,-1,1
EndSplineSet
Validated: 1
EndChar

StartChar: asciicircum
Encoding: 64 94 91
Width: 609
Flags: W
LayerCount: 2
Fore
SplineSet
247 700 m 1,0,-1
 363 700 l 1,1,-1
 571 337 l 1,2,-1
 429 337 l 1,3,-1
 305 560 l 1,4,-1
 180 337 l 1,5,-1
 38 337 l 1,6,-1
 247 700 l 1,0,-1
EndSplineSet
Validated: 1
EndChar

StartChar: percent
Encoding: 7 37 92
Width: 1051
Flags: W
LayerCount: 2
Fore
SplineSet
652 722 m 1,0,-1
 794 722 l 1,1,-1
 398 -25 l 1,2,-1
 256 -25 l 1,3,-1
 652 722 l 1,0,-1
84 305.5 m 128,-1,5
 38 351 38 351 38 425 c 2,6,-1
 38 543 l 2,7,8
 38 617 38 617 84 662.5 c 128,-1,9
 130 708 130 708 206 708 c 2,10,-1
 262 708 l 2,11,12
 338 708 338 708 384 662.5 c 128,-1,13
 430 617 430 617 430 543 c 2,14,-1
 430 425 l 2,15,16
 430 351 430 351 384 305.5 c 128,-1,17
 338 260 338 260 262 260 c 2,18,-1
 206 260 l 2,19,4
 130 260 130 260 84 305.5 c 128,-1,5
259 369 m 2,20,21
 280 369 280 369 292.5 386.5 c 128,-1,22
 305 404 305 404 305 433 c 2,23,-1
 305 535 l 2,24,25
 305 564 305 564 292.5 581.5 c 128,-1,26
 280 599 280 599 259 599 c 2,27,-1
 209 599 l 2,28,29
 188 599 188 599 175.5 581.5 c 128,-1,30
 163 564 163 564 163 535 c 2,31,-1
 163 433 l 2,32,33
 163 404 163 404 175.5 386.5 c 128,-1,34
 188 369 188 369 209 369 c 2,35,-1
 259 369 l 2,20,21
667 37.5 m 128,-1,37
 621 83 621 83 621 157 c 2,38,-1
 621 275 l 2,39,40
 621 349 621 349 667 394.5 c 128,-1,41
 713 440 713 440 789 440 c 2,42,-1
 845 440 l 2,43,44
 921 440 921 440 967 394.5 c 128,-1,45
 1013 349 1013 349 1013 275 c 2,46,-1
 1013 157 l 2,47,48
 1013 83 1013 83 967 37.5 c 128,-1,49
 921 -8 921 -8 845 -8 c 2,50,-1
 789 -8 l 2,51,36
 713 -8 713 -8 667 37.5 c 128,-1,37
842 101 m 2,52,53
 863 101 863 101 875.5 118.5 c 128,-1,54
 888 136 888 136 888 165 c 2,55,-1
 888 267 l 2,56,57
 888 296 888 296 875.5 313.5 c 128,-1,58
 863 331 863 331 842 331 c 2,59,-1
 792 331 l 2,60,61
 771 331 771 331 758.5 313.5 c 128,-1,62
 746 296 746 296 746 267 c 2,63,-1
 746 165 l 2,64,65
 746 136 746 136 758.5 118.5 c 128,-1,66
 771 101 771 101 792 101 c 2,67,-1
 842 101 l 2,52,53
EndSplineSet
Validated: 1
EndChar

StartChar: at
Encoding: 34 64 93
Width: 900
Flags: W
LayerCount: 2
Fore
SplineSet
116.5 31 m 128,-1,1
 38 102 38 102 38 228 c 2,2,-1
 38 428 l 2,3,4
 38 568 38 568 125.5 647 c 128,-1,5
 213 726 213 726 369 726 c 2,6,-1
 567 726 l 2,7,8
 706 726 706 726 784 660 c 128,-1,9
 862 594 862 594 862 476 c 2,10,-1
 862 327 l 2,11,12
 862 242 862 242 821.5 194.5 c 128,-1,13
 781 147 781 147 708 147 c 2,14,-1
 676 147 l 2,15,16
 646 147 646 147 620.5 161 c 128,-1,17
 595 175 595 175 580 199 c 1,18,-1
 579 199 l 1,19,20
 558 170 558 170 527 153.5 c 128,-1,21
 496 137 496 137 462 137 c 2,22,-1
 410 137 l 2,23,24
 331 137 331 137 287 181 c 128,-1,25
 243 225 243 225 243 303 c 2,26,-1
 243 370 l 2,27,28
 243 452 243 452 288 498 c 128,-1,29
 333 544 333 544 413 544 c 2,30,-1
 459 544 l 2,31,32
 483 544 483 544 504 534.5 c 128,-1,33
 525 525 525 525 539 508 c 1,34,-1
 539 538 l 1,35,-1
 649 538 l 1,36,-1
 649 289 l 2,37,38
 649 271 649 271 657.5 260.5 c 128,-1,39
 666 250 666 250 682 250 c 2,40,-1
 702 250 l 2,41,42
 719 250 719 250 728.5 266.5 c 128,-1,43
 738 283 738 283 738 313 c 2,44,-1
 738 476 l 2,45,46
 738 542 738 542 692.5 579 c 128,-1,47
 647 616 647 616 567 616 c 2,48,-1
 369 616 l 2,49,50
 273 616 273 616 219.5 566.5 c 128,-1,51
 166 517 166 517 166 428 c 2,52,-1
 166 228 l 2,53,54
 166 154 166 154 211 112 c 128,-1,55
 256 70 256 70 335 70 c 2,56,-1
 511 70 l 2,57,58
 565 70 565 70 611.5 81.5 c 128,-1,59
 658 93 658 93 687 114 c 1,60,-1
 746 25 l 1,61,62
 711 -6 711 -6 648 -23 c 128,-1,63
 585 -40 585 -40 508 -40 c 2,64,-1
 335 -40 l 2,65,0
 195 -40 195 -40 116.5 31 c 128,-1,1
464 241 m 2,66,67
 491 241 491 241 508 261.5 c 128,-1,68
 525 282 525 282 529 319 c 1,69,-1
 529 382 l 2,70,71
 526 409 526 409 511 424.5 c 128,-1,72
 496 440 496 440 472 440 c 2,73,-1
 425 440 l 2,74,75
 396 440 396 440 379.5 420.5 c 128,-1,76
 363 401 363 401 363 366 c 2,77,-1
 363 307 l 2,78,79
 363 276 363 276 377.5 258.5 c 128,-1,80
 392 241 392 241 417 241 c 2,81,-1
 464 241 l 2,66,67
EndSplineSet
Validated: 1
EndChar

StartChar: ampersand
Encoding: 8 38 94
Width: 696
Flags: W
LayerCount: 2
Fore
SplineSet
544 0 m 1,0,-1
 487 62 l 1,1,2
 448 28 448 28 400.5 10 c 128,-1,3
 353 -8 353 -8 301 -8 c 2,4,-1
 261 -8 l 2,5,6
 156 -8 156 -8 97 39 c 128,-1,7
 38 86 38 86 38 169 c 2,8,-1
 38 205 l 2,9,10
 38 252 38 252 57 284.5 c 128,-1,11
 76 317 76 317 103 337 c 128,-1,12
 130 357 130 357 188 392 c 1,13,-1
 178 404 l 2,14,15
 126 466 126 466 126 525 c 2,16,-1
 126 547 l 2,17,18
 126 620 126 620 178 664 c 128,-1,19
 230 708 230 708 315 708 c 2,20,-1
 353 708 l 2,21,22
 433 708 433 708 481.5 664.5 c 128,-1,23
 530 621 530 621 530 550 c 2,24,-1
 530 530 l 2,25,26
 530 500 530 500 516 474.5 c 0,27,28
 502 450 502 450 471.5 425.5 c 128,-1,29
 441 401 441 401 384 366 c 2,30,-1
 366 355 l 1,31,-1
 474 237 l 1,32,33
 495 286 495 286 500 339 c 1,34,-1
 615 339 l 1,35,36
 609 234 609 234 558 146 c 1,37,-1
 692 0 l 1,38,-1
 544 0 l 1,0,-1
252 525 m 2,39,40
 252 494 252 494 285 455 c 2,41,-1
 304 432 l 1,42,-1
 320 443 l 2,43,44
 374 481 374 481 389 495 c 128,-1,45
 404 509 404 509 404 530 c 2,46,-1
 404 550 l 2,47,48
 404 573 404 573 389 586.5 c 128,-1,49
 374 600 374 600 349 600 c 2,50,-1
 314 600 l 2,51,52
 287 600 287 600 269.5 585 c 128,-1,53
 252 570 252 570 252 545 c 2,54,-1
 252 525 l 2,39,40
410 146 m 1,55,-1
 262 308 l 1,56,57
 208 277 208 277 190 257.5 c 128,-1,58
 172 238 172 238 172 207 c 2,59,-1
 172 173 l 2,60,61
 172 143 172 143 196 124.5 c 128,-1,62
 220 106 220 106 259 106 c 2,63,-1
 303 106 l 2,64,65
 364 106 364 106 410 146 c 1,55,-1
EndSplineSet
Validated: 1
EndChar

StartChar: bar
Encoding: 94 124 95
Width: 272
Flags: W
LayerCount: 2
Fore
SplineSet
68 847 m 1,0,-1
 204 847 l 1,1,-1
 204 -147 l 1,2,-1
 68 -147 l 1,3,-1
 68 847 l 1,0,-1
EndSplineSet
Validated: 1
EndChar

StartChar: grave
Encoding: 66 96 96
Width: 312
Flags: W
AnchorPoint: "Anchor-10" 216 748 basemark 0
LayerCount: 2
Fore
SplineSet
32 748 m 1,0,-1
 182 748 l 1,1,-1
 280 568 l 1,2,-1
 150 568 l 1,3,-1
 32 748 l 1,0,-1
EndSplineSet
Validated: 1
EndChar
